<svg id="Layer_1" data-name="Layer 1" xmlns="http://www.w3.org/2000/svg" viewBox="0 0 184.9 196.61"><defs><style>.cls-1{fill:#fff;}.cls-1,.cls-2,.cls-3{stroke:#231f20;stroke-miterlimit:10;}.cls-2,.cls-3{fill:none;}.cls-3{stroke-width:0.25px;}.cls-4{font-size:12px;font-family:MyriadPro-Regular, Myriad Pro;}</style></defs><title>18.1.12</title><polygon class="cls-1" points="63.78 13.97 25.21 183.26 174.24 136.77 63.78 13.97"/><line class="cls-2" x1="44.78" y1="97.36" x2="118.51" y2="74.81"/><path class="cls-3" d="M263.22,306.22a89.44,89.44,0,0,1,9.64-2.43" transform="translate(-116.22 -257.03)"/><path class="cls-3" d="M203.42,364.86a90.65,90.65,0,0,1,5.37-12.79" transform="translate(-116.22 -257.03)"/><path class="cls-3" d="M141.69,354.91a91.63,91.63,0,0,1-15.83-9.43" transform="translate(-116.22 -257.03)"/><path class="cls-3" d="M193.33,362.54q-4.05.56-8.17.77" transform="translate(-116.22 -257.03)"/><path class="cls-3" d="M196.11,362.1c-.92.16-1.85.31-2.78.44" transform="translate(-116.22 -257.03)"/><path class="cls-3" d="M209,359a97.17,97.17,0,0,1-10.17,2.6" transform="translate(-116.22 -257.03)"/><path class="cls-3" d="M268,301a106.61,106.61,0,0,1-6.64,14.72" transform="translate(-116.22 -257.03)"/><path class="cls-3" d="M186.73,360a91.86,91.86,0,0,1,8.28,5.33" transform="translate(-116.22 -257.03)"/><path class="cls-3" d="M116.25,351.61a92,92,0,0,1,27.93-3.45" transform="translate(-116.22 -257.03)"/><text class="cls-4" transform="translate(61.33 10.04)">A</text><text class="cls-4" transform="translate(18.77 193.61)">B</text><text class="cls-4" transform="translate(177.94 141.51)">C</text><text class="cls-4" transform="translate(34.28 104.57)">D</text><text class="cls-4" transform="translate(123.41 74.81)">E</text></svg>