<svg id="Layer_1" data-name="Layer 1" xmlns="http://www.w3.org/2000/svg" viewBox="0 0 159.82 104.02"><defs><style>.cls-1{fill:#fff;}.cls-1,.cls-3{stroke:#231f20;stroke-miterlimit:10;}.cls-2{font-size:12px;fill:#231f20;font-family:MyriadPro-Regular, Myriad Pro;}.cls-3{fill:none;}</style></defs><title>18.1.11</title><polygon class="cls-1" points="37.86 14.33 152.86 14.33 126.43 89.33 11.43 89.33 37.86 14.33"/><text class="cls-2" transform="translate(0 95.76)">A</text><text class="cls-2" transform="translate(30.71 10.04)">D</text><text class="cls-2" transform="translate(152.86 14.33)">C</text><text class="cls-2" transform="translate(132.14 95.76)">B</text><line class="cls-3" x1="152.86" y1="14.33" x2="46.74" y2="89.33"/><line class="cls-3" x1="11.59" y1="89.3" x2="115.07" y2="14.33"/><line class="cls-3" x1="126.79" y1="89.12" x2="73.29" y2="14.62"/><line class="cls-3" x1="37.79" y1="14.12" x2="91.29" y2="89.62"/><text class="cls-2" transform="translate(75.19 36.57)">G</text><text class="cls-2" transform="translate(42.14 101.02)">F</text><text class="cls-2" transform="translate(114.72 12.35)">E</text><text class="cls-2" transform="translate(80.5 74.34)">H</text><text class="cls-2" transform="translate(57.9 63.58)">M</text><text class="cls-2" transform="translate(106.53 56.35)">N</text><path class="cls-3" d="M231,333a6.22,6.22,0,0,0,7,0" transform="translate(-195.71 -312.38)"/><path class="cls-3" d="M210.5,392.5c3,0,4,3,4,4" transform="translate(-195.71 -312.38)"/><path class="cls-3" d="M257.5,360.5a4.81,4.81,0,0,0-2,6" transform="translate(-195.71 -312.38)"/><path class="cls-3" d="M262.5,361.5a5.64,5.64,0,0,1,0,6" transform="translate(-195.71 -312.38)"/><path class="cls-3" d="M280.5,348.5a2.77,2.77,0,0,0,4,0" transform="translate(-195.71 -312.38)"/><path class="cls-3" d="M254.5,393.5c3,2,3,5,2,8" transform="translate(-195.71 -312.38)"/><path class="cls-3" d="M334.5,326.5c-1,4,0,8,2,9" transform="translate(-195.71 -312.38)"/><text class="cls-2" transform="translate(36.34 31.05)">5</text><text class="cls-2" transform="translate(18.38 77.93)">4</text><text class="cls-2" transform="translate(51.64 52.26)">6</text><text class="cls-2" transform="translate(69.59 55.9)">7</text><text class="cls-2" transform="translate(131.72 23.39)">3</text><text class="cls-2" transform="translate(82.64 47.42)">8</text><text class="cls-2" transform="translate(62.85 86.58)">2</text><text class="cls-2" transform="translate(25.1 87.42)">1</text><path class="cls-3" d="M215,396c3,3,0,6,0,6" transform="translate(-195.71 -312.38)"/></svg>