<svg id="Layer_1" data-name="Layer 1" xmlns="http://www.w3.org/2000/svg" viewBox="0 0 404.56 99.78"><defs><style>.cls-1{fill:#fff;stroke:#231f20;stroke-miterlimit:10;}.cls-2{font-size:12px;}.cls-2,.cls-3{fill:#231f20;font-family:MyriadPro-Regular, Myriad Pro;}.cls-3{font-size:8px;}</style></defs><title>18.1.9</title><line class="cls-1" x1="6.64" y1="46.47" x2="184.5" y2="89.33"/><line class="cls-1" x1="178.07" y1="16.47" x2="0.21" y2="99.33"/><line class="cls-1" x1="210.6" y1="17.19" x2="394.18" y2="17.19"/><line class="cls-1" x1="210.6" y1="77.19" x2="394.18" y2="77.19"/><line class="cls-1" x1="263.46" y1="17.19" x2="263.46" y2="77.19"/><line class="cls-1" x1="327.03" y1="17.19" x2="327.03" y2="77.19"/><rect class="cls-1" x="256.5" y="17.19" width="6.96" height="6.96"/><rect class="cls-1" x="320.07" y="17.19" width="6.96" height="6.96"/><rect class="cls-1" x="263.46" y="70.22" width="6.96" height="6.96"/><rect class="cls-1" x="327.03" y="70.22" width="6.96" height="6.96"/><text class="cls-2" transform="translate(184.5 12.19)">l</text><text class="cls-2" transform="translate(190.21 89.33)">l</text><text class="cls-2" transform="translate(397.32 19.33)">l</text><text class="cls-2" transform="translate(396.89 77.33)">l</text><text class="cls-2" transform="translate(259.98 10.04)">A</text><text class="cls-2" transform="translate(259.18 89.33)">B</text><text class="cls-2" transform="translate(322.03 10.04)">D</text><text class="cls-2" transform="translate(318.46 90.04)">C</text><text class="cls-3" transform="translate(187.21 13.87)">1</text><text class="cls-3" transform="translate(192.93 90.04)">2</text><text class="cls-3" transform="translate(399.89 19.33)">3</text><text class="cls-3" transform="translate(400.46 78.9)">4</text></svg>