<svg id="Layer_1" data-name="Layer 1" xmlns="http://www.w3.org/2000/svg" viewBox="0 0 122.65 79.3"><defs><style>.cls-1{font-size:12px;}.cls-1,.cls-3,.cls-5,.cls-6,.cls-7{fill:#231f20;}.cls-1,.cls-6{font-family:MyriadPro-Regular, Myriad Pro;}.cls-2{fill:#fff;}.cls-2,.cls-3,.cls-4{stroke:#231f20;stroke-miterlimit:10;}.cls-4{fill:none;}.cls-5{font-size:9px;}.cls-5,.cls-7{font-family:AdobeSongStd-Light-GBpc-EUC-H, Adobe Song Std;}.cls-6{font-size:8px;}.cls-7{font-size:5px;}</style></defs><title>18.1.6</title><text class="cls-1" transform="translate(25.72 10.76)">A</text><text class="cls-1" transform="translate(0 74.75)">B</text><text class="cls-1" transform="translate(89.59 76.3)">C</text><text class="cls-1" transform="translate(114.66 10.76)">D</text><polygon class="cls-2" points="115.69 12.53 33.38 12.53 7.29 66.82 89.59 66.82 115.69 12.53"/><line class="cls-3" x1="33.38" y1="12.53" x2="89.59" y2="66.82"/><path class="cls-4" d="M280.64,300.29c-1.37,4.3-4.21,5.15-8.42,5" transform="translate(-241.43 -287.75)"/><path class="cls-4" d="M282.58,300.29c0,1.55-1.66,4.52-3,4.52" transform="translate(-241.43 -287.75)"/><path class="cls-4" d="M325.16,354.33c1.37-4.31,4.21-5.15,8.42-5" transform="translate(-241.43 -287.75)"/><path class="cls-4" d="M323.22,354.33c0-1.56,1.66-4.52,3-4.52" transform="translate(-241.43 -287.75)"/><text class="cls-5" transform="translate(7.28 39.68)">左</text><text class="cls-5" transform="translate(104.16 44.28)">右</text><text class="cls-5" transform="translate(39.66 76.3)">下</text><text class="cls-5" transform="translate(64.04 7.92)">上</text><text class="cls-6" transform="translate(32.12 25.21)">1</text><text class="cls-6" transform="translate(85.76 59.13)">2</text><text class="cls-6" transform="translate(42.53 20.11)">3</text><text class="cls-6" transform="translate(76.01 64.32)">4</text><text class="cls-7" transform="translate(36.55 27.21)">左</text><text class="cls-7" transform="translate(87.94 50.04)">右</text><text class="cls-7" transform="translate(47.85 18.56)">上</text><text class="cls-7" transform="translate(67.81 64.06)">下</text></svg>