<svg id="Layer_1" data-name="Layer 1" xmlns="http://www.w3.org/2000/svg" viewBox="0 0 108.68 94.47"><defs><style>.cls-1{fill:#fff;}.cls-1,.cls-3{stroke:#231f20;stroke-miterlimit:10;}.cls-2{font-size:12px;}.cls-2,.cls-4{fill:#231f20;font-family:MyriadPro-Regular, Myriad Pro;}.cls-3{fill:none;}.cls-4{font-size:8px;}</style></defs><title>19.2.9</title><rect class="cls-1" x="8.57" y="10.04" width="70.71" height="70.71"/><text class="cls-2" transform="translate(0 10.04)">A</text><text class="cls-2" transform="translate(0 91.47)">B</text><text class="cls-2" transform="translate(75.99 91.47)">C</text><text class="cls-2" transform="translate(82.14 10.04)">D</text><polyline class="cls-3" points="79.29 80.76 101.84 80.76 79.29 10.04"/><polyline class="cls-3" points="8.57 80.76 79.29 58.21 101.84 80.76"/><text class="cls-2" transform="translate(70.91 57.43)">E</text><text class="cls-2" transform="translate(102.84 85.7)">F</text><path class="cls-3" d="M272.94,257.81a3.56,3.56,0,0,1,3.42-3.7" transform="translate(-177.86 -183.81)"/><path class="cls-3" d="M273.36,264.57c-1.15-1.38-.19-4.51,1.82-4.51" transform="translate(-177.86 -183.81)"/><rect class="cls-3" x="79.29" y="78.26" width="2.49" height="2.49"/><rect class="cls-3" x="76.79" y="78.26" width="2.49" height="2.49"/><path class="cls-3" d="M253.09,243.08c.69,1.8,6.91,4,8.13,2.49" transform="translate(-177.86 -183.81)"/><text class="cls-4" transform="translate(92.53 70.29)">1</text><text class="cls-4" transform="translate(73.07 67.74)">2</text><text class="cls-4" transform="translate(70.91 78.5)">3</text><text class="cls-4" transform="translate(82.14 79.51)">4</text><text class="cls-4" transform="translate(80.53 69.48)">5</text><text class="cls-4" transform="translate(90.56 79.51)">6</text></svg>