<svg id="Layer_1" data-name="Layer 1" xmlns="http://www.w3.org/2000/svg" viewBox="0 0 110.4 118.25"><defs><style>.cls-1{fill:none;stroke:#231f20;stroke-miterlimit:10;}.cls-2{font-size:12px;}.cls-2,.cls-3{fill:#231f20;font-family:MyriadPro-Regular, Myriad Pro;}.cls-3{font-size:8px;}</style></defs><title>18.2.11</title><rect class="cls-1" x="8.57" y="33.82" width="70.71" height="70.71"/><text class="cls-2" transform="translate(0 33.82)">A</text><text class="cls-2" transform="translate(0 115.25)">B</text><text class="cls-2" transform="translate(82.14 115.25)">C</text><text class="cls-2" transform="translate(82.14 41.64)">D</text><polyline class="cls-1" points="8.57 104.53 103.33 10.04 79.29 104.53 8.57 33.82 103.33 10.04"/><path class="cls-1" d="M186.43,264.57" transform="translate(-177.86 -160.04)"/><text class="cls-2" transform="translate(39.82 65.41)">O</text><text class="cls-3" transform="translate(18.54 41.14)">4</text><text class="cls-3" transform="translate(39.82 32.16)">2</text><text class="cls-3" transform="translate(87.7 20.35)">3</text><text class="cls-3" transform="translate(67.09 40.14)">1</text><text class="cls-2" transform="translate(104.5 10.04)">E</text><path class="cls-1" d="M192.4,193.86a6.5,6.5,0,0,1-1.49,4.48" transform="translate(-177.86 -160.04)"/><path class="cls-1" d="M202.1,189.92c0,2.18-.62,3.94-1.38,3.94" transform="translate(-177.86 -160.04)"/><path class="cls-1" d="M271.65,172.48c0,2.39,1.25,4.33,2.8,4.33" transform="translate(-177.86 -160.04)"/><path class="cls-1" d="M251.2,193.86a6.55,6.55,0,0,0,1.49,4.48" transform="translate(-177.86 -160.04)"/></svg>