<svg id="Layer_1" data-name="Layer 1" xmlns="http://www.w3.org/2000/svg" viewBox="0 0 82.41 74.7"><defs><style>.cls-1{font-size:12px;}.cls-1,.cls-2{fill:#231f20;font-family:MyriadPro-Regular, Myriad Pro;}.cls-2{font-size:8px;}.cls-3,.cls-4{fill:none;stroke:#231f20;stroke-miterlimit:10;}.cls-4{stroke-dasharray:2.88 2.88;}</style></defs><title>18.2.10</title><text class="cls-1" transform="translate(1.42 10.04)">A</text><text class="cls-1" transform="translate(75.91 70.69)">B</text><text class="cls-1" transform="translate(3.58 71.7)">C</text><text class="cls-2" transform="translate(17.77 46.29)">D</text><text class="cls-1" transform="translate(23.28 71.7)">E</text><text class="cls-1" transform="translate(0 51.45)">F</text><rect class="cls-3" x="9.15" y="47.03" width="2.49" height="2.49"/><rect class="cls-3" x="23.9" y="58.68" width="2.49" height="2.49"/><text class="cls-2" transform="translate(11.64 55)">1</text><text class="cls-2" transform="translate(19.12 59.93)">2</text><polygon class="cls-3" points="9.14 12.87 9.14 61.67 75.15 61.67 9.14 12.87"/><path class="cls-3" d="M107.11,204.5" transform="translate(-97.96 -191.63)"/><line class="cls-3" x1="9.15" y1="12.87" x2="26.39" y2="47.03"/><polyline class="cls-3" points="75.15 61.67 26.39 47.03 9.37 47.03"/><line class="cls-3" x1="26.39" y1="61.67" x2="26.39" y2="47.03"/><line class="cls-3" x1="26.1" y1="47.03" x2="27" y2="45.82"/><line class="cls-4" x1="28.7" y1="43.51" x2="34.69" y2="35.41"/><line class="cls-3" x1="35.54" y1="34.25" x2="36.43" y2="33.04"/><text class="cls-1" transform="translate(36.91 33.04)">G</text></svg>