<svg id="Layer_1" data-name="Layer 1" xmlns="http://www.w3.org/2000/svg" viewBox="0 0 506.69 509"><defs><style>.cls-1,.cls-3{fill:none;stroke:#000;stroke-miterlimit:10;}.cls-1{stroke-width:1.5px;}.cls-2{font-size:25px;font-family:Helvetica;}</style></defs><title>26.1.7</title><polygon points="506.6 254.5 496.6 249.5 499.6 254.5 496.6 259.5 506.6 254.5"/><line class="cls-1" y1="254.5" x2="506.6" y2="254.5"/><text class="cls-2" transform="translate(228.92 278.39)">O</text><line class="cls-1" x1="253.8" y1="258.5" x2="253.8" y2="250.5"/><path d="M488.06,266.52a.56.56,0,0,1,.21-.49.72.72,0,0,1,.43-.15.76.76,0,0,1,.21,0,1,1,0,0,1,.23.11l.31.16a.34.34,0,0,0,.11.05h.13a.45.45,0,0,0,.34-.11,9.25,9.25,0,0,0,.61-.76c.22-.29.71-1,1.48-2.11,0,0-.07-.35-.2-.94s-.26-1.09-.37-1.5a3.54,3.54,0,0,0-.3-.82.55.55,0,0,0-.49-.2,2.45,2.45,0,0,0-.49.09l-.49.12-.08-.27,1-.33a6.5,6.5,0,0,1,.69-.21,2.07,2.07,0,0,1,.55-.08.69.69,0,0,1,.56.22,3.34,3.34,0,0,1,.47,1.38l.19,1a14.07,14.07,0,0,1,1.23-1.71,3.63,3.63,0,0,1,.74-.67,1.36,1.36,0,0,1,.67-.22,1.16,1.16,0,0,1,.49.09.61.61,0,0,1,.33.6.62.62,0,0,1-.17.46.54.54,0,0,1-.43.17l-.18,0a.89.89,0,0,1-.19-.07l-.23-.09-.18-.08-.13,0c-.27,0-.63.34-1.1,1a4.68,4.68,0,0,0-.7,1.18,6.09,6.09,0,0,0,.16.85c.11.49.23,1,.36,1.54a6.71,6.71,0,0,0,.29,1.05c.14.32.29.48.46.48A.67.67,0,0,0,495,266a9.66,9.66,0,0,0,.74-.94l.25.14a7,7,0,0,1-.78,1.17,2.07,2.07,0,0,1-1.46.92.78.78,0,0,1-.7-.42,3.57,3.57,0,0,1-.29-.81l-.54-2.17-1.8,2.36a6.34,6.34,0,0,1-.82.83,1.14,1.14,0,0,1-.7.21.82.82,0,0,1-.77-.35A.9.9,0,0,1,488.06,266.52Z" transform="translate(0)"/><polygon points="253.8 0 248.8 10 253.8 7 258.8 10 253.8 0"/><line class="cls-1" x1="253.8" y1="509" x2="253.8"/><line class="cls-1" x1="249.8" y1="254.5" x2="257.8" y2="254.5"/><path d="M266.69,20.9a.72.72,0,0,1,.17-.48.64.64,0,0,1,.51-.21.8.8,0,0,1,.39.09,1.37,1.37,0,0,1,.35.24l.13.09a.24.24,0,0,0,.11.06.39.39,0,0,0,.15,0c.29,0,.75-.38,1.38-1.13a3.38,3.38,0,0,0,1-1.66,10.84,10.84,0,0,0-.33-1.93c-.22-1-.43-1.82-.64-2.57a8.93,8.93,0,0,0-.79-2.15,1.16,1.16,0,0,0-1.05-.56l-.18,0-.43,0v-.29l2.4-.45.18,0c.15,0,.43.64.85,2a23,23,0,0,1,.7,2.62l.35,2.09c.62-1,1.07-1.82,1.35-2.38a6.07,6.07,0,0,0,.85-2.27.8.8,0,0,0-.06-.3.48.48,0,0,0-.24-.25l-.15-.08a1.26,1.26,0,0,1-.33-.26.69.69,0,0,1-.19-.52.65.65,0,0,1,.18-.46.68.68,0,0,1,.52-.18,1,1,0,0,1,.72.26,1.19,1.19,0,0,1,.27.88,8,8,0,0,1-1,3A31.43,31.43,0,0,1,272,17.25a26.13,26.13,0,0,1-2.1,2.87c-.93,1.07-1.7,1.6-2.32,1.6a1,1,0,0,1-.63-.22A.72.72,0,0,1,266.69,20.9Z" transform="translate(0)"/><polyline class="cls-3" points="506.68 249.12 506.48 249.12 506.28 249.11 506.08 249.11 505.88 249.1 505.67 249.1 505.47 249.09 505.27 249.09 505.07 249.09 504.87 249.08 504.67 249.08 504.46 249.07 504.26 249.07 504.06 249.06 503.86 249.06 503.66 249.06 503.45 249.05 503.25 249.05 503.05 249.04 502.85 249.04 502.65 249.03 502.45 249.03 502.25 249.03 502.04 249.02 501.84 249.02 501.64 249.01 501.44 249.01 501.24 249 501.04 249 500.83 248.99 500.63 248.99 500.43 248.99 500.23 248.98 500.03 248.98 499.82 248.97 499.62 248.97 499.42 248.96 499.22 248.96 499.02 248.95 498.82 248.95 498.62 248.94 498.41 248.94 498.21 248.94 498.01 248.93 497.81 248.93 497.61 248.92 497.4 248.92 497.2 248.91 497 248.91 496.8 248.9 496.6 248.9 496.4 248.89 496.19 248.89 495.99 248.88 495.79 248.88 495.59 248.88 495.39 248.87 495.19 248.87 494.99 248.86 494.78 248.86 494.58 248.85 494.38 248.85 494.18 248.84 493.98 248.84 493.77 248.83 493.57 248.83 493.37 248.82 493.17 248.82 492.97 248.81 492.77 248.81 492.57 248.8 492.36 248.8 492.16 248.79 491.96 248.79 491.76 248.78 491.56 248.78 491.36 248.78 491.15 248.77 490.95 248.77 490.75 248.76 490.55 248.76 490.35 248.75 490.15 248.75 489.94 248.74 489.74 248.74 489.54 248.73 489.34 248.73 489.14 248.72 488.94 248.72 488.73 248.71 488.53 248.71 488.33 248.7 488.13 248.7 487.93 248.69 487.73 248.69 487.52 248.68 487.32 248.68 487.12 248.67 486.92 248.67 486.72 248.66 486.52 248.66 486.31 248.65 486.11 248.65 485.91 248.64 485.71 248.64 485.51 248.63 485.31 248.63 485.1 248.62 484.9 248.62 484.7 248.61 484.5 248.61 484.3 248.6 484.1 248.59 483.89 248.59 483.69 248.59 483.49 248.58 483.29 248.57 483.09 248.57 482.89 248.56 482.68 248.56 482.48 248.55 482.28 248.55 482.08 248.54 481.88 248.54 481.68 248.53 481.47 248.53 481.27 248.52 481.07 248.52 480.87 248.51 480.67 248.51 480.47 248.5 480.26 248.5 480.06 248.49 479.86 248.49 479.66 248.48 479.46 248.47 479.26 248.47 479.05 248.46 478.85 248.46 478.65 248.45 478.45 248.45 478.25 248.44 478.05 248.44 477.84 248.43 477.64 248.43 477.44 248.42 477.24 248.41 477.04 248.41 476.84 248.4 476.63 248.4 476.43 248.39 476.23 248.39 476.03 248.38 475.83 248.38 475.63 248.37 475.42 248.37 475.22 248.36 475.02 248.35 474.82 248.35 474.62 248.34 474.42 248.34 474.21 248.33 474.01 248.33 473.81 248.32 473.61 248.31 473.41 248.31 473.21 248.3 473 248.3 472.8 248.29 472.6 248.29 472.4 248.28 472.2 248.28 472 248.27 471.8 248.26 471.59 248.26 471.39 248.25 471.19 248.25 470.99 248.24 470.79 248.24 470.58 248.23 470.38 248.22 470.18 248.22 469.98 248.21 469.78 248.21 469.58 248.2 469.38 248.19 469.17 248.19 468.97 248.18 468.77 248.18 468.57 248.17 468.37 248.16 468.17 248.16 467.96 248.15 467.76 248.15 467.56 248.14 467.36 248.13 467.16 248.13 466.95 248.12 466.75 248.12 466.55 248.11 466.35 248.1 466.15 248.1 465.95 248.09 465.75 248.09 465.54 248.08 465.34 248.07 465.14 248.07 464.94 248.06 464.74 248.06 464.54 248.05 464.33 248.04 464.13 248.04 463.93 248.03 463.73 248.03 463.53 248.02 463.32 248.01 463.12 248.01 462.92 248 462.72 247.99 462.52 247.99 462.32 247.98 462.12 247.97 461.91 247.97 461.71 247.96 461.51 247.96 461.31 247.95 461.11 247.94 460.9 247.94 460.7 247.93 460.5 247.92 460.3 247.92 460.1 247.91 459.9 247.91 459.69 247.9 459.49 247.89 459.29 247.88 459.09 247.88 458.89 247.87 458.69 247.87 458.49 247.86 458.28 247.85 458.08 247.85 457.88 247.84 457.68 247.83 457.48 247.83 457.27 247.82 457.07 247.81 456.87 247.81 456.67 247.8 456.47 247.79 456.27 247.79 456.06 247.78 455.86 247.77 455.66 247.77 455.46 247.76 455.26 247.75 455.06 247.75 454.86 247.74 454.65 247.73 454.45 247.73 454.25 247.72 454.05 247.71 453.85 247.71 453.64 247.7 453.44 247.69 453.24 247.69 453.04 247.68 452.84 247.67 452.64 247.66 452.44 247.66 452.23 247.65 452.03 247.64 451.83 247.64 451.63 247.63 451.43 247.62 451.23 247.62 451.02 247.61 450.82 247.6 450.62 247.59 450.42 247.59 450.22 247.58 450.01 247.57 449.81 247.57 449.61 247.56 449.41 247.55 449.21 247.55 449.01 247.54 448.81 247.53 448.6 247.52 448.4 247.52 448.2 247.51 448 247.5 447.8 247.5 447.6 247.49 447.39 247.48 447.19 247.47 446.99 247.47 446.79 247.46 446.59 247.45 446.38 247.44 446.18 247.44 445.98 247.43 445.78 247.42 445.58 247.41 445.38 247.41 445.18 247.4 444.97 247.39 444.77 247.38 444.57 247.38 444.37 247.37 444.17 247.36 443.96 247.35 443.76 247.35 443.56 247.34 443.36 247.33 443.16 247.32 442.96 247.32 442.75 247.31 442.55 247.3 442.35 247.29 442.15 247.29 441.95 247.28 441.75 247.27 441.55 247.26 441.34 247.25 441.14 247.25 440.94 247.24 440.74 247.23 440.54 247.22 440.34 247.22 440.13 247.21 439.93 247.2 439.73 247.19 439.53 247.19 439.33 247.18 439.13 247.17 438.92 247.16 438.72 247.15 438.52 247.15 438.32 247.14 438.12 247.13 437.92 247.12 437.71 247.11 437.51 247.1 437.31 247.1 437.11 247.09 436.91 247.08 436.71 247.07 436.5 247.06 436.3 247.06 436.1 247.05 435.9 247.04 435.7 247.03 435.5 247.02 435.29 247.01 435.09 247.01 434.89 247 434.69 246.99 434.49 246.98 434.29 246.97 434.08 246.97 433.88 246.96 433.68 246.95 433.48 246.94 433.28 246.93 433.08 246.92 432.87 246.91 432.67 246.91 432.47 246.9 432.27 246.89 432.07 246.88 431.87 246.87 431.66 246.86 431.46 246.85 431.26 246.84 431.06 246.84 430.86 246.83 430.66 246.82 430.45 246.81 430.25 246.8 430.05 246.79 429.85 246.78 429.65 246.78 429.45 246.77 429.24 246.76 429.04 246.75 428.84 246.74 428.64 246.73 428.44 246.72 428.24 246.71 428.03 246.7 427.83 246.69 427.63 246.69 427.43 246.68 427.23 246.67 427.03 246.66 426.82 246.65 426.62 246.64 426.42 246.63 426.22 246.62 426.02 246.61 425.82 246.6 425.61 246.59 425.41 246.59 425.21 246.58 425.01 246.57 424.81 246.56 424.61 246.55 424.4 246.54 424.2 246.53 424 246.52 423.8 246.51 423.6 246.5 423.4 246.49 423.19 246.48 422.99 246.47 422.79 246.46 422.59 246.45 422.39 246.44 422.19 246.44 421.98 246.43 421.78 246.42 421.58 246.41 421.38 246.4 421.18 246.39 420.98 246.38 420.77 246.37 420.57 246.36 420.37 246.35 420.17 246.34 419.97 246.33 419.77 246.32 419.56 246.31 419.36 246.3 419.16 246.29 418.96 246.28 418.76 246.27 418.56 246.26 418.36 246.25 418.15 246.24 417.95 246.23 417.75 246.22 417.55 246.21 417.35 246.2 417.14 246.19 416.94 246.18 416.74 246.17 416.54 246.16 416.34 246.15 416.14 246.14 415.94 246.13 415.73 246.12 415.53 246.1 415.33 246.09 415.13 246.08 414.93 246.07 414.73 246.06 414.52 246.05 414.32 246.04 414.12 246.03 413.92 246.02 413.72 246.01 413.51 246 413.31 245.99 413.11 245.98 412.91 245.97 412.71 245.96 412.51 245.94 412.31 245.94 412.1 245.92 411.9 245.91 411.7 245.9 411.5 245.89 411.3 245.88 411.1 245.87 410.89 245.86 410.69 245.85 410.49 245.84 410.29 245.82 410.09 245.81 409.88 245.8 409.68 245.79 409.48 245.78 409.28 245.77 409.08 245.76 408.88 245.75 408.68 245.74 408.47 245.72 408.27 245.71 408.07 245.7 407.87 245.69 407.67 245.68 407.46 245.67 407.26 245.66 407.06 245.64 406.86 245.63 406.66 245.62 406.46 245.61 406.25 245.6 406.05 245.59 405.85 245.57 405.65 245.56 405.45 245.55 405.25 245.54 405.05 245.53 404.84 245.51 404.64 245.5 404.44 245.49 404.24 245.48 404.04 245.47 403.83 245.45 403.63 245.44 403.43 245.43 403.23 245.42 403.03 245.41 402.83 245.39 402.63 245.38 402.42 245.37 402.22 245.36 402.02 245.34 401.82 245.33 401.62 245.32 401.42 245.31 401.21 245.29 401.01 245.28 400.81 245.27 400.61 245.26 400.41 245.24 400.2 245.23 400 245.22 399.8 245.21 399.6 245.19 399.4 245.18 399.2 245.17 399 245.15 398.79 245.14 398.59 245.13 398.39 245.12 398.19 245.1 397.99 245.09 397.79 245.08 397.58 245.06 397.38 245.05 397.18 245.04 396.98 245.02 396.78 245.01 396.57 245 396.37 244.98 396.17 244.97 395.97 244.96 395.77 244.94 395.57 244.93 395.37 244.92 395.16 244.9 394.96 244.89 394.76 244.88 394.56 244.86 394.36 244.85 394.15 244.83 393.95 244.82 393.75 244.81 393.55 244.79 393.35 244.78 393.15 244.76 392.94 244.75 392.74 244.74 392.54 244.72 392.34 244.71 392.14 244.69 391.94 244.68 391.74 244.66 391.53 244.65 391.33 244.64 391.13 244.62 390.93 244.61 390.73 244.59 390.52 244.58 390.32 244.56 390.12 244.55 389.92 244.53 389.72 244.52 389.52 244.5 389.32 244.49 389.11 244.47 388.91 244.46 388.71 244.45 388.51 244.43 388.31 244.42 388.11 244.4 387.9 244.38 387.7 244.37 387.5 244.35 387.3 244.34 387.1 244.32 386.9 244.31 386.69 244.29 386.49 244.28 386.29 244.26 386.09 244.25 385.89 244.23 385.69 244.22 385.48 244.2 385.28 244.19 385.08 244.17 384.88 244.15 384.68 244.14 384.48 244.12 384.27 244.11 384.07 244.09 383.87 244.07 383.67 244.06 383.47 244.04 383.27 244.03 383.06 244.01 382.86 243.99 382.66 243.98 382.46 243.96 382.26 243.94 382.06 243.93 381.85 243.91 381.65 243.89 381.45 243.88 381.25 243.86 381.05 243.84 380.85 243.83 380.64 243.81 380.44 243.79 380.24 243.78 380.04 243.76 379.84 243.74 379.64 243.72 379.43 243.71 379.23 243.69 379.03 243.67 378.83 243.66 378.63 243.64 378.43 243.62 378.22 243.6 378.02 243.59 377.82 243.57 377.62 243.55 377.42 243.53 377.22 243.51 377.01 243.5 376.81 243.48 376.61 243.46 376.41 243.44 376.21 243.43 376.01 243.41 375.8 243.39 375.6 243.37 375.4 243.35 375.2 243.33 375 243.32 374.8 243.3 374.59 243.28 374.39 243.26 374.19 243.24 373.99 243.22 373.79 243.2 373.59 243.19 373.38 243.17 373.18 243.15 372.98 243.13 372.78 243.11 372.58 243.09 372.38 243.07 372.17 243.05 371.97 243.03 371.77 243.01 371.57 242.99 371.37 242.97 371.17 242.95 370.96 242.93 370.76 242.91 370.56 242.89 370.36 242.87 370.16 242.85 369.96 242.83 369.75 242.81 369.55 242.79 369.35 242.77 369.15 242.75 368.95 242.73 368.75 242.71 368.55 242.69 368.34 242.67 368.14 242.65 367.94 242.63 367.74 242.61 367.54 242.59 367.33 242.57 367.13 242.54 366.93 242.52 366.73 242.5 366.53 242.48 366.33 242.46 366.13 242.44 365.92 242.42 365.72 242.4 365.52 242.37 365.32 242.35 365.12 242.33 364.92 242.31 364.71 242.29 364.51 242.26 364.31 242.24 364.11 242.22 363.91 242.2 363.7 242.18 363.5 242.15 363.3 242.13 363.1 242.11 362.9 242.08 362.7 242.06 362.5 242.04 362.29 242.02 362.09 241.99 361.89 241.97 361.69 241.95 361.49 241.92 361.29 241.9 361.08 241.88 360.88 241.85 360.68 241.83 360.48 241.81 360.28 241.78 360.07 241.76 359.87 241.73 359.67 241.71 359.47 241.69 359.27 241.66 359.07 241.64 358.87 241.61 358.66 241.59 358.46 241.56 358.26 241.54 358.06 241.51 357.86 241.49 357.65 241.46 357.45 241.44 357.25 241.41 357.05 241.39 356.85 241.36 356.65 241.34 356.44 241.31 356.24 241.28 356.04 241.26 355.84 241.23 355.64 241.21 355.44 241.18 355.24 241.15 355.03 241.13 354.83 241.1 354.63 241.07 354.43 241.05 354.23 241.02 354.02 240.99 353.82 240.97 353.62 240.94 353.42 240.91 353.22 240.88 353.02 240.86 352.81 240.83 352.61 240.8 352.41 240.78 352.21 240.75 352.01 240.72 351.81 240.69 351.61 240.66 351.4 240.63 351.2 240.61 351 240.58 350.8 240.55 350.6 240.52 350.39 240.49 350.19 240.46 349.99 240.43 349.79 240.4 349.59 240.37 349.39 240.34 349.19 240.31 348.98 240.28 348.78 240.25 348.58 240.22 348.38 240.19 348.18 240.16 347.98 240.13 347.77 240.1 347.57 240.07 347.37 240.04 347.17 240.01 346.97 239.98 346.76 239.95 346.56 239.92 346.36 239.88 346.16 239.85 345.96 239.82 345.76 239.79 345.56 239.76 345.35 239.73 345.15 239.69 344.95 239.66 344.75 239.63 344.55 239.6 344.35 239.56 344.14 239.53 343.94 239.5 343.74 239.46 343.54 239.43 343.34 239.4 343.13 239.36 342.93 239.33 342.73 239.29 342.53 239.26 342.33 239.22 342.13 239.19 341.93 239.16 341.72 239.12 341.52 239.09 341.32 239.05 341.12 239.02 340.92 238.98 340.71 238.94 340.51 238.91 340.31 238.87 340.11 238.84 339.91 238.8 339.71 238.76 339.5 238.73 339.3 238.69 339.1 238.65 338.9 238.62 338.7 238.58 338.5 238.54 338.3 238.5 338.09 238.47 337.89 238.43 337.69 238.39 337.49 238.35 337.29 238.31 337.09 238.27 336.88 238.23 336.68 238.19 336.48 238.16 336.28 238.12 336.08 238.08 335.88 238.04 335.67 238 335.47 237.96 335.27 237.91 335.07 237.88 334.87 237.83 334.67 237.79 334.46 237.75 334.26 237.71 334.06 237.67 333.86 237.63 333.66 237.58 333.46 237.54 333.25 237.5 333.05 237.46 332.85 237.41 332.65 237.37 332.45 237.33 332.25 237.28 332.04 237.24 331.84 237.19 331.64 237.15 331.44 237.1 331.24 237.06 331.04 237.01 330.83 236.97 330.63 236.92 330.43 236.88 330.23 236.83 330.03 236.79 329.83 236.74 329.62 236.69 329.42 236.65 329.22 236.6 329.02 236.55 328.82 236.5 328.62 236.46 328.41 236.41 328.21 236.36 328.01 236.31 327.81 236.26 327.61 236.21 327.41 236.16 327.2 236.11 327 236.06 326.8 236.01 326.6 235.96 326.4 235.91 326.2 235.86 325.99 235.81 325.79 235.76 325.59 235.7 325.39 235.65 325.19 235.6 324.99 235.55 324.78 235.49 324.58 235.44 324.38 235.38 324.18 235.33 323.98 235.28 323.78 235.22 323.57 235.17 323.37 235.11 323.17 235.06 322.97 235 322.77 234.94 322.57 234.89 322.36 234.83 322.16 234.77 321.96 234.72 321.76 234.66 321.56 234.6 321.36 234.54 321.15 234.48 320.95 234.42 320.75 234.36 320.55 234.3 320.35 234.24 320.15 234.18 319.94 234.12 319.74 234.06 319.54 234 319.34 233.93 319.14 233.87 318.94 233.81 318.73 233.74 318.53 233.68 318.33 233.62 318.13 233.55 317.93 233.49 317.73 233.42 317.52 233.35 317.32 233.29 317.12 233.22 316.92 233.15 316.72 233.09 316.52 233.02 316.31 232.95 316.11 232.88 315.91 232.81 315.71 232.74 315.51 232.67 315.31 232.6 315.11 232.53 314.9 232.46 314.7 232.39 314.5 232.31 314.3 232.24 314.1 232.17 313.89 232.09 313.69 232.02 313.49 231.94 313.29 231.87 313.09 231.79 312.89 231.72 312.69 231.64 312.48 231.56 312.28 231.48 312.08 231.41 311.88 231.33 311.68 231.25 311.48 231.17 311.27 231.09 311.07 231 310.87 230.92 310.67 230.84 310.47 230.76 310.26 230.67 310.06 230.59 309.86 230.5 309.66 230.42 309.46 230.33 309.26 230.25 309.06 230.16 308.85 230.07 308.65 229.98 308.45 229.89 308.25 229.8 308.05 229.71 307.85 229.62 307.64 229.53 307.44 229.44 307.24 229.34 307.04 229.25 306.84 229.16 306.63 229.06 306.43 228.97 306.23 228.87 306.03 228.77 305.83 228.67 305.63 228.57 305.43 228.47 305.22 228.37 305.02 228.27 304.82 228.17 304.62 228.07 304.42 227.96 304.21 227.86 304.01 227.75 303.81 227.65 303.61 227.54 303.41 227.43 303.21 227.32 303 227.22 302.8 227.1 302.6 226.99 302.4 226.88 302.2 226.77 302 226.65 301.8 226.54 301.59 226.42 301.39 226.31 301.19 226.19 300.99 226.07 300.79 225.95 300.58 225.83 300.38 225.71 300.18 225.58 299.98 225.46 299.78 225.33 299.58 225.21 299.38 225.08 299.17 224.95 298.97 224.82 298.77 224.69 298.57 224.56 298.37 224.43 298.17 224.29 297.96 224.16 297.76 224.02 297.56 223.88 297.36 223.74 297.16 223.6 296.95 223.46 296.75 223.32 296.55 223.17 296.35 223.03 296.15 222.88 295.95 222.73 295.75 222.58 295.54 222.43 295.34 222.28 295.14 222.12 294.94 221.97 294.74 221.81 294.54 221.65 294.33 221.49 294.13 221.33 293.93 221.17 293.73 221 293.53 220.84 293.32 220.67 293.12 220.5 292.92 220.32 292.72 220.15 292.52 219.98 292.32 219.8 292.12 219.62 291.91 219.44 291.71 219.26 291.51 219.07 291.31 218.89 291.11 218.7 290.9 218.51 290.7 218.31 290.5 218.12 290.3 217.92 290.1 217.72 289.9 217.52 289.69 217.32 289.49 217.12 289.29 216.91 289.09 216.7 288.89 216.49 288.69 216.27 288.49 216.05 288.28 215.83 288.08 215.61 287.88 215.39 287.68 215.16 287.48 214.93 287.27 214.7 287.07 214.46 286.87 214.22 286.67 213.98 286.47 213.74 286.27 213.49 286.07 213.24 285.86 212.99 285.66 212.73 285.46 212.47 285.26 212.21 285.06 211.94 284.86 211.67 284.65 211.4 284.45 211.12 284.25 210.84 284.05 210.56 283.85 210.27 283.65 209.98 283.44 209.69 283.24 209.39 283.04 209.09 282.84 208.78 282.64 208.47 282.44 208.15 282.23 207.83 282.03 207.51 281.83 207.18 281.63 206.85 281.43 206.51 281.23 206.17 281.02 205.82 280.82 205.47 280.62 205.11 280.42 204.75 280.22 204.38 280.02 204 279.81 203.62 279.61 203.24 279.41 202.85 279.21 202.45 279.01 202.05 278.81 201.64 278.6 201.22 278.4 200.8 278.2 200.37 278 199.93 277.8 199.49 277.6 199.04 277.39 198.58 277.19 198.11 276.99 197.64 276.79 197.16 276.59 196.67 276.39 196.17 276.18 195.66 275.98 195.14 275.78 194.62 275.58 194.08 275.38 193.54 275.18 192.99 274.97 192.42 274.77 191.85 274.57 191.26 274.37 190.66 274.17 190.06 273.97 189.44 273.76 188.81 273.56 188.16 273.36 187.5 273.16 186.83 272.96 186.15 272.76 185.45 272.55 184.74 272.35 184.01 272.15 183.27 271.95 182.51 271.85 182.13 271.75 181.74 271.65 181.35 271.55 180.95 271.44 180.55 271.34 180.14 271.24 179.73 271.14 179.32 271.04 178.9 270.94 178.47 270.84 178.04 270.74 177.61 270.64 177.17 270.54 176.72 270.44 176.27 270.34 175.82 270.24 175.36 270.13 174.89 270.03 174.42 269.93 173.94 269.83 173.46 269.73 172.97 269.63 172.48 269.53 171.98 269.43 171.47 269.33 170.96 269.23 170.44 269.13 169.92 269.02 169.39 268.92 168.85 268.82 168.3 268.72 167.75 268.62 167.19 268.52 166.62 268.42 166.05 268.32 165.47 268.22 164.88 268.12 164.28 268.02 163.67 267.92 163.06 267.81 162.44 267.71 161.81 267.61 161.17 267.51 160.52 267.41 159.86 267.31 159.2 267.21 158.52 267.11 157.83 267.01 157.14 266.91 156.43 266.81 155.72 266.71 154.99 266.61 154.25 266.5 153.51 266.4 152.75 266.3 151.98 266.2 151.19 266.1 150.4 266 149.59 265.9 148.77 265.8 147.94 265.7 147.09 265.6 146.23 265.5 145.36 265.39 144.47 265.3 143.57 265.19 142.66 265.09 141.72 264.99 140.78 264.89 139.81 264.79 138.83 264.69 137.84 264.59 136.82 264.49 135.79 264.39 134.74 264.29 133.67 264.19 132.58 264.08 131.47 263.98 130.34 263.88 129.19 263.78 128.02 263.68 126.83 263.58 125.61 263.48 124.37 263.38 123.11 263.28 121.82 263.18 120.51 263.08 119.17 262.98 117.8 262.88 116.41 262.77 114.98 262.67 113.53 262.57 112.05 262.47 110.53 262.37 108.98 262.27 107.4 262.17 105.78 262.07 104.13 261.97 102.44 261.87 100.71 261.76 98.95 261.67 97.14 261.56 95.29 261.46 93.39 261.36 91.45 261.26 89.46 261.16 87.42 261.06 85.33 260.96 83.19 260.86 81 260.76 78.74 260.66 76.43 260.56 74.06 260.45 71.62 260.35 69.11 260.25 66.54 260.15 63.89 260.05 61.17 259.95 58.37 259.85 55.48 259.75 52.51 259.65 49.45 259.55 46.3 259.45 43.04 259.35 39.69 259.25 36.22 259.14 32.65 259.04 28.95 258.94 25.12 258.84 21.17 258.74 17.08 258.64 12.84 258.54 8.44 258.44 3.88"/><text class="cls-2" transform="translate(228.92 213.74)">C</text><text class="cls-2" transform="translate(284.51 207.42)">A(2, 3)</text><polyline class="cls-3" points="253.8 206.43 281.19 206.43 253.8 254.5"/><polyline class="cls-3" points="253.8 214.75 257.8 206.43 262.26 206.43 253.8 224.89 253.8 233.2 267.5 206.43 273.9 206.43 254.61 241.35"/></svg>