<svg id="Layer_1" data-name="Layer 1" xmlns="http://www.w3.org/2000/svg" viewBox="0 0 506.98 509"><defs><style>.cls-1,.cls-3{fill:none;stroke:#000;stroke-miterlimit:10;}.cls-1{stroke-width:1.5px;}.cls-2{font-size:25px;font-family:Helvetica;}</style></defs><title>26.1.3</title><polygon points="506.6 254.5 496.6 249.5 499.6 254.5 496.6 259.5 506.6 254.5"/><line class="cls-1" y1="254.5" x2="506.6" y2="254.5"/><text class="cls-2" transform="translate(228.92 278.39)">O</text><line class="cls-1" x1="253.8" y1="258.5" x2="253.8" y2="250.5"/><path d="M488.06,266.52a.56.56,0,0,1,.21-.49.72.72,0,0,1,.43-.15.76.76,0,0,1,.21,0,1,1,0,0,1,.23.11l.31.16a.34.34,0,0,0,.11.05h.13a.45.45,0,0,0,.34-.11,9.25,9.25,0,0,0,.61-.76c.22-.29.71-1,1.48-2.11,0,0-.07-.35-.2-.94s-.26-1.09-.37-1.5a3.54,3.54,0,0,0-.3-.82.55.55,0,0,0-.49-.2,2.45,2.45,0,0,0-.49.09l-.49.12-.08-.27,1-.33a6.5,6.5,0,0,1,.69-.21,2.07,2.07,0,0,1,.55-.08.69.69,0,0,1,.56.22,3.34,3.34,0,0,1,.47,1.38l.19,1a14.07,14.07,0,0,1,1.23-1.71,3.63,3.63,0,0,1,.74-.67,1.36,1.36,0,0,1,.67-.22,1.16,1.16,0,0,1,.49.09.61.61,0,0,1,.33.6.62.62,0,0,1-.17.46.54.54,0,0,1-.43.17l-.18,0a.89.89,0,0,1-.19-.07l-.23-.09-.18-.08-.13,0c-.27,0-.63.34-1.1,1a4.68,4.68,0,0,0-.7,1.18,6.09,6.09,0,0,0,.16.85c.11.49.23,1,.36,1.54a6.71,6.71,0,0,0,.29,1.05c.14.32.29.48.46.48A.67.67,0,0,0,495,266a9.66,9.66,0,0,0,.74-.94l.25.14a7,7,0,0,1-.78,1.17,2.07,2.07,0,0,1-1.46.92.78.78,0,0,1-.7-.42,3.57,3.57,0,0,1-.29-.81l-.54-2.17-1.8,2.36a6.34,6.34,0,0,1-.82.83,1.14,1.14,0,0,1-.7.21.82.82,0,0,1-.77-.35A.9.9,0,0,1,488.06,266.52Z" transform="translate(0)"/><polygon points="253.8 0 248.8 10 253.8 7 258.8 10 253.8 0"/><line class="cls-1" x1="253.8" y1="509" x2="253.8"/><line class="cls-1" x1="249.8" y1="254.5" x2="257.8" y2="254.5"/><path d="M266.69,20.9a.72.72,0,0,1,.17-.48.64.64,0,0,1,.51-.21.8.8,0,0,1,.39.09,1.37,1.37,0,0,1,.35.24l.13.09a.24.24,0,0,0,.11.06.39.39,0,0,0,.15,0c.29,0,.75-.38,1.38-1.13a3.38,3.38,0,0,0,1-1.66,10.84,10.84,0,0,0-.33-1.93c-.22-1-.43-1.82-.64-2.57a8.93,8.93,0,0,0-.79-2.15,1.16,1.16,0,0,0-1.05-.56l-.18,0-.43,0v-.29l2.4-.45.18,0c.15,0,.43.64.85,2a23,23,0,0,1,.7,2.62l.35,2.09c.62-1,1.07-1.82,1.35-2.38a6.07,6.07,0,0,0,.85-2.27.8.8,0,0,0-.06-.3.48.48,0,0,0-.24-.25l-.15-.08a1.26,1.26,0,0,1-.33-.26.69.69,0,0,1-.19-.52.65.65,0,0,1,.18-.46.68.68,0,0,1,.52-.18,1,1,0,0,1,.72.26,1.19,1.19,0,0,1,.27.88,8,8,0,0,1-1,3A31.43,31.43,0,0,1,272,17.25a26.13,26.13,0,0,1-2.1,2.87c-.93,1.07-1.7,1.6-2.32,1.6a1,1,0,0,1-.63-.22A.72.72,0,0,1,266.69,20.9Z" transform="translate(0)"/><polyline class="cls-3" points="259.25 3.88 259.35 8.44 259.45 12.84 259.55 17.08 259.65 21.17 259.75 25.12 259.85 28.95 259.95 32.65 260.05 36.22 260.15 39.69 260.25 43.04 260.35 46.3 260.45 49.45 260.56 52.51 260.66 55.48 260.76 58.37 260.86 61.17 260.96 63.89 261.06 66.54 261.16 69.11 261.26 71.62 261.36 74.06 261.46 76.43 261.56 78.74 261.67 81 261.77 83.19 261.87 85.33 261.97 87.42 262.07 89.46 262.17 91.45 262.27 93.39 262.37 95.29 262.47 97.14 262.57 98.95 262.67 100.71 262.77 102.44 262.88 104.13 262.98 105.78 263.08 107.4 263.18 108.98 263.28 110.53 263.38 112.05 263.48 113.53 263.58 114.98 263.68 116.41 263.78 117.8 263.88 119.17 263.98 120.51 264.08 121.82 264.19 123.11 264.29 124.37 264.39 125.61 264.49 126.83 264.59 128.02 264.69 129.19 264.79 130.34 264.89 131.47 264.99 132.58 265.09 133.67 265.19 134.74 265.3 135.79 265.39 136.82 265.5 137.84 265.6 138.83 265.7 139.81 265.8 140.78 265.9 141.72 266 142.66 266.1 143.57 266.2 144.47 266.3 145.36 266.4 146.23 266.5 147.09 266.61 147.94 266.71 148.77 266.81 149.59 266.91 150.4 267.01 151.19 267.11 151.98 267.21 152.75 267.31 153.51 267.41 154.25 267.51 154.99 267.61 155.72 267.71 156.43 267.81 157.14 267.92 157.83 268.02 158.52 268.12 159.2 268.22 159.86 268.32 160.52 268.42 161.17 268.52 161.81 268.62 162.44 268.72 163.06 268.82 163.67 268.93 164.28 269.02 164.88 269.13 165.47 269.23 166.05 269.33 166.62 269.43 167.19 269.53 167.75 269.63 168.3 269.73 168.85 269.83 169.39 269.93 169.92 270.03 170.44 270.13 170.96 270.24 171.47 270.34 171.98 270.44 172.48 270.54 172.97 270.64 173.46 270.74 173.94 270.84 174.42 270.94 174.89 271.04 175.36 271.14 175.82 271.24 176.27 271.34 176.72 271.44 177.17 271.55 177.61 271.65 178.04 271.75 178.47 271.85 178.9 271.95 179.32 272.05 179.73 272.15 180.14 272.25 180.55 272.35 180.95 272.45 181.35 272.55 181.74 272.65 182.13 272.76 182.51 272.96 183.27 273.16 184.01 273.36 184.74 273.56 185.45 273.76 186.15 273.97 186.83 274.17 187.5 274.37 188.16 274.57 188.81 274.77 189.44 274.97 190.06 275.18 190.66 275.38 191.26 275.58 191.85 275.78 192.42 275.98 192.99 276.18 193.54 276.39 194.08 276.59 194.62 276.79 195.14 276.99 195.66 277.19 196.17 277.39 196.67 277.6 197.16 277.8 197.64 278 198.11 278.2 198.58 278.4 199.04 278.6 199.49 278.81 199.93 279.01 200.37 279.21 200.8 279.41 201.22 279.61 201.64 279.81 202.05 280.02 202.45 280.22 202.85 280.42 203.24 280.62 203.62 280.82 204 281.02 204.38 281.23 204.75 281.43 205.11 281.63 205.47 281.83 205.82 282.03 206.17 282.23 206.51 282.44 206.85 282.64 207.18 282.84 207.51 283.04 207.83 283.24 208.15 283.44 208.47 283.65 208.78 283.85 209.09 284.05 209.39 284.25 209.69 284.45 209.98 284.65 210.27 284.86 210.56 285.06 210.84 285.26 211.12 285.46 211.4 285.66 211.67 285.86 211.94 286.07 212.21 286.27 212.47 286.47 212.73 286.67 212.99 286.87 213.24 287.07 213.49 287.28 213.74 287.48 213.98 287.68 214.22 287.88 214.46 288.08 214.7 288.28 214.93 288.49 215.16 288.69 215.39 288.89 215.61 289.09 215.83 289.29 216.05 289.49 216.27 289.7 216.49 289.9 216.7 290.1 216.91 290.3 217.12 290.5 217.32 290.7 217.52 290.91 217.72 291.11 217.92 291.31 218.12 291.51 218.31 291.71 218.51 291.91 218.7 292.12 218.89 292.32 219.07 292.52 219.26 292.72 219.44 292.92 219.62 293.12 219.8 293.32 219.98 293.53 220.15 293.73 220.32 293.93 220.5 294.13 220.67 294.33 220.84 294.54 221 294.74 221.17 294.94 221.33 295.14 221.49 295.34 221.65 295.54 221.81 295.75 221.97 295.95 222.12 296.15 222.28 296.35 222.43 296.55 222.58 296.75 222.73 296.95 222.88 297.16 223.03 297.36 223.17 297.56 223.32 297.76 223.46 297.96 223.6 298.17 223.74 298.37 223.88 298.57 224.02 298.77 224.16 298.97 224.29 299.17 224.43 299.38 224.56 299.58 224.69 299.78 224.82 299.98 224.95 300.18 225.08 300.38 225.21 300.58 225.33 300.79 225.46 300.99 225.58 301.19 225.71 301.39 225.83 301.59 225.95 301.8 226.07 302 226.19 302.2 226.31 302.4 226.42 302.6 226.54 302.8 226.65 303 226.77 303.21 226.88 303.41 226.99 303.61 227.1 303.81 227.22 304.01 227.32 304.21 227.43 304.42 227.54 304.62 227.65 304.82 227.75 305.02 227.86 305.22 227.96 305.43 228.07 305.63 228.17 305.83 228.27 306.03 228.37 306.23 228.47 306.43 228.57 306.63 228.67 306.84 228.77 307.04 228.87 307.24 228.97 307.44 229.06 307.64 229.16 307.85 229.25 308.05 229.34 308.25 229.44 308.45 229.53 308.65 229.62 308.85 229.71 309.06 229.8 309.26 229.89 309.46 229.98 309.66 230.07 309.86 230.16 310.06 230.25 310.26 230.33 310.47 230.42 310.67 230.5 310.87 230.59 311.07 230.67 311.27 230.76 311.48 230.84 311.68 230.92 311.88 231 312.08 231.09 312.28 231.17 312.48 231.25 312.69 231.33 312.89 231.41 313.09 231.48 313.29 231.56 313.49 231.64 313.69 231.72 313.89 231.79 314.1 231.87 314.3 231.94 314.5 232.02 314.7 232.09 314.9 232.17 315.11 232.24 315.31 232.31 315.51 232.39 315.71 232.46 315.91 232.53 316.11 232.6 316.31 232.67 316.52 232.74 316.72 232.81 316.92 232.88 317.12 232.95 317.32 233.02 317.52 233.09 317.73 233.15 317.93 233.22 318.13 233.29 318.33 233.35 318.53 233.42 318.74 233.49 318.94 233.55 319.14 233.62 319.34 233.68 319.54 233.74 319.74 233.81 319.94 233.87 320.15 233.93 320.35 234 320.55 234.06 320.75 234.12 320.95 234.18 321.15 234.24 321.36 234.3 321.56 234.36 321.76 234.42 321.96 234.48 322.16 234.54 322.37 234.6 322.57 234.66 322.77 234.72 322.97 234.77 323.17 234.83 323.37 234.89 323.57 234.94 323.78 235 323.98 235.06 324.18 235.11 324.38 235.17 324.58 235.22 324.78 235.28 324.99 235.33 325.19 235.38 325.39 235.44 325.59 235.49 325.79 235.55 325.99 235.6 326.2 235.65 326.4 235.7 326.6 235.76 326.8 235.81 327 235.86 327.2 235.91 327.41 235.96 327.61 236.01 327.81 236.06 328.01 236.11 328.21 236.16 328.41 236.21 328.62 236.26 328.82 236.31 329.02 236.36 329.22 236.41 329.42 236.46 329.62 236.5 329.83 236.55 330.03 236.6 330.23 236.65 330.43 236.69 330.63 236.74 330.83 236.79 331.04 236.83 331.24 236.88 331.44 236.92 331.64 236.97 331.84 237.01 332.04 237.06 332.25 237.1 332.45 237.15 332.65 237.19 332.85 237.24 333.05 237.28 333.25 237.33 333.46 237.37 333.66 237.41 333.86 237.46 334.06 237.5 334.26 237.54 334.46 237.58 334.67 237.63 334.87 237.67 335.07 237.71 335.27 237.75 335.47 237.79 335.67 237.83 335.88 237.88 336.08 237.91 336.28 237.96 336.48 238 336.68 238.04 336.88 238.08 337.09 238.12 337.29 238.16 337.49 238.19 337.69 238.23 337.89 238.27 338.09 238.31 338.3 238.35 338.5 238.39 338.7 238.43 338.9 238.47 339.1 238.5 339.3 238.54 339.51 238.58 339.71 238.62 339.91 238.65 340.11 238.69 340.31 238.73 340.51 238.76 340.72 238.8 340.92 238.84 341.12 238.87 341.32 238.91 341.52 238.94 341.72 238.98 341.93 239.02 342.13 239.05 342.33 239.09 342.53 239.12 342.73 239.16 342.93 239.19 343.13 239.22 343.34 239.26 343.54 239.29 343.74 239.33 343.94 239.36 344.14 239.4 344.35 239.43 344.55 239.46 344.75 239.5 344.95 239.53 345.15 239.56 345.35 239.6 345.56 239.63 345.76 239.66 345.96 239.69 346.16 239.73 346.36 239.76 346.56 239.79 346.76 239.82 346.97 239.85 347.17 239.88 347.37 239.92 347.57 239.95 347.77 239.98 347.98 240.01 348.18 240.04 348.38 240.07 348.58 240.1 348.78 240.13 348.98 240.16 349.19 240.19 349.39 240.22 349.59 240.25 349.79 240.28 349.99 240.31 350.19 240.34 350.39 240.37 350.6 240.4 350.8 240.43 351 240.46 351.2 240.49 351.4 240.52 351.61 240.55 351.81 240.58 352.01 240.61 352.21 240.63 352.41 240.66 352.61 240.69 352.81 240.72 353.02 240.75 353.22 240.78 353.42 240.8 353.62 240.83 353.82 240.86 354.02 240.88 354.23 240.91 354.43 240.94 354.63 240.97 354.83 240.99 355.03 241.02 355.24 241.05 355.44 241.07 355.64 241.1 355.84 241.13 356.04 241.15 356.24 241.18 356.44 241.21 356.65 241.23 356.85 241.26 357.05 241.28 357.25 241.31 357.45 241.34 357.65 241.36 357.86 241.39 358.06 241.41 358.26 241.44 358.46 241.46 358.66 241.49 358.87 241.51 359.07 241.54 359.27 241.56 359.47 241.59 359.67 241.61 359.87 241.64 360.07 241.66 360.28 241.69 360.48 241.71 360.68 241.73 360.88 241.76 361.08 241.78 361.29 241.81 361.49 241.83 361.69 241.85 361.89 241.88 362.09 241.9 362.29 241.92 362.5 241.95 362.7 241.97 362.9 241.99 363.1 242.02 363.3 242.04 363.5 242.06 363.7 242.08 363.91 242.11 364.11 242.13 364.31 242.15 364.51 242.18 364.71 242.2 364.92 242.22 365.12 242.24 365.32 242.26 365.52 242.29 365.72 242.31 365.92 242.33 366.13 242.35 366.33 242.37 366.53 242.4 366.73 242.42 366.93 242.44 367.13 242.46 367.33 242.48 367.54 242.5 367.74 242.52 367.94 242.54 368.14 242.57 368.34 242.59 368.55 242.61 368.75 242.63 368.95 242.65 369.15 242.67 369.35 242.69 369.55 242.71 369.75 242.73 369.96 242.75 370.16 242.77 370.36 242.79 370.56 242.81 370.76 242.83 370.96 242.85 371.17 242.87 371.37 242.89 371.57 242.91 371.77 242.93 371.97 242.95 372.18 242.97 372.38 242.99 372.58 243.01 372.78 243.03 372.98 243.05 373.18 243.07 373.38 243.09 373.59 243.11 373.79 243.13 373.99 243.15 374.19 243.17 374.39 243.19 374.59 243.2 374.8 243.22 375 243.24 375.2 243.26 375.4 243.28 375.6 243.3 375.8 243.32 376.01 243.33 376.21 243.35 376.41 243.37 376.61 243.39 376.81 243.41 377.01 243.43 377.22 243.44 377.42 243.46 377.62 243.48 377.82 243.5 378.02 243.51 378.22 243.53 378.43 243.55 378.63 243.57 378.83 243.59 379.03 243.6 379.23 243.62 379.43 243.64 379.64 243.66 379.84 243.67 380.04 243.69 380.24 243.71 380.44 243.72 380.64 243.74 380.85 243.76 381.05 243.78 381.25 243.79 381.45 243.81 381.65 243.83 381.85 243.84 382.06 243.86 382.26 243.88 382.46 243.89 382.66 243.91 382.86 243.93 383.06 243.94 383.27 243.96 383.47 243.98 383.67 243.99 383.87 244.01 384.07 244.03 384.27 244.04 384.48 244.06 384.68 244.07 384.88 244.09 385.08 244.11 385.28 244.12 385.48 244.14 385.69 244.15 385.89 244.17 386.09 244.19 386.29 244.2 386.49 244.22 386.69 244.23 386.9 244.25 387.1 244.26 387.3 244.28 387.5 244.29 387.7 244.31 387.9 244.32 388.11 244.34 388.31 244.35 388.51 244.37 388.71 244.38 388.91 244.4 389.11 244.42 389.32 244.43 389.52 244.45 389.72 244.46 389.92 244.47 390.12 244.49 390.32 244.5 390.53 244.52 390.73 244.53 390.93 244.55 391.13 244.56 391.33 244.58 391.53 244.59 391.74 244.61 391.94 244.62 392.14 244.64 392.34 244.65 392.54 244.66 392.74 244.68 392.95 244.69 393.15 244.71 393.35 244.72 393.55 244.74 393.75 244.75 393.95 244.76 394.16 244.78 394.36 244.79 394.56 244.81 394.76 244.82 394.96 244.83 395.16 244.85 395.37 244.86 395.57 244.88 395.77 244.89 395.97 244.9 396.17 244.92 396.37 244.93 396.57 244.94 396.78 244.96 396.98 244.97 397.18 244.98 397.38 245 397.58 245.01 397.79 245.02 397.99 245.04 398.19 245.05 398.39 245.06 398.59 245.08 398.79 245.09 399 245.1 399.2 245.12 399.4 245.13 399.6 245.14 399.8 245.15 400 245.17 400.2 245.18 400.41 245.19 400.61 245.21 400.81 245.22 401.01 245.23 401.21 245.24 401.42 245.26 401.62 245.27 401.82 245.28 402.02 245.29 402.22 245.31 402.42 245.32 402.63 245.33 402.83 245.34 403.03 245.36 403.23 245.37 403.43 245.38 403.63 245.39 403.83 245.41 404.04 245.42 404.24 245.43 404.44 245.44 404.64 245.45 404.84 245.47 405.05 245.48 405.25 245.49 405.45 245.5 405.65 245.51 405.85 245.53 406.05 245.54 406.25 245.55 406.46 245.56 406.66 245.57 406.86 245.59 407.06 245.6 407.26 245.61 407.46 245.62 407.67 245.63 407.87 245.64 408.07 245.66 408.27 245.67 408.47 245.68 408.68 245.69 408.88 245.7 409.08 245.71 409.28 245.72 409.48 245.74 409.68 245.75 409.88 245.76 410.09 245.77 410.29 245.78 410.49 245.79 410.69 245.8 410.89 245.81 411.1 245.82 411.3 245.84 411.5 245.85 411.7 245.86 411.9 245.87 412.1 245.88 412.31 245.89 412.51 245.9 412.71 245.91 412.91 245.92 413.11 245.94 413.31 245.94 413.51 245.96 413.72 245.97 413.92 245.98 414.12 245.99 414.32 246 414.52 246.01 414.73 246.02 414.93 246.03 415.13 246.04 415.33 246.05 415.53 246.06 415.73 246.07 415.94 246.08 416.14 246.09 416.34 246.1 416.54 246.12 416.74 246.13 416.94 246.14 417.14 246.15 417.35 246.16 417.55 246.17 417.75 246.18 417.95 246.19 418.15 246.2 418.36 246.21 418.56 246.22 418.76 246.23 418.96 246.24 419.16 246.25 419.36 246.26 419.56 246.27 419.77 246.28 419.97 246.29 420.17 246.3 420.37 246.31 420.57 246.32 420.77 246.33 420.98 246.34 421.18 246.35 421.38 246.36 421.58 246.37 421.78 246.38 421.99 246.39 422.19 246.4 422.39 246.41 422.59 246.42 422.79 246.43 422.99 246.44 423.19 246.44 423.4 246.45 423.6 246.46 423.8 246.47 424 246.48 424.2 246.49 424.4 246.5 424.61 246.51 424.81 246.52 425.01 246.53 425.21 246.54 425.41 246.55 425.62 246.56 425.82 246.57 426.02 246.58 426.22 246.59 426.42 246.59 426.62 246.6 426.82 246.61 427.03 246.62 427.23 246.63 427.43 246.64 427.63 246.65 427.83 246.66 428.03 246.67 428.24 246.68 428.44 246.69 428.64 246.69 428.84 246.7 429.04 246.71 429.24 246.72 429.45 246.73 429.65 246.74 429.85 246.75 430.05 246.76 430.25 246.77 430.45 246.78 430.66 246.78 430.86 246.79 431.06 246.8 431.26 246.81 431.46 246.82 431.66 246.83 431.87 246.84 432.07 246.85 432.27 246.85 432.47 246.86 432.67 246.87 432.87 246.88 433.08 246.89 433.28 246.9 433.48 246.91 433.68 246.91 433.88 246.92 434.08 246.93 434.29 246.94 434.49 246.95 434.69 246.96 434.89 246.97 435.09 246.97 435.29 246.98 435.5 246.99 435.7 247 435.9 247.01 436.1 247.01 436.3 247.02 436.5 247.03 436.71 247.04 436.91 247.05 437.11 247.06 437.31 247.06 437.51 247.07 437.71 247.08 437.92 247.09 438.12 247.1 438.32 247.1 438.52 247.11 438.72 247.12 438.92 247.13 439.13 247.14 439.33 247.15 439.53 247.15 439.73 247.16 439.93 247.17 440.13 247.18 440.34 247.19 440.54 247.19 440.74 247.2 440.94 247.21 441.14 247.22 441.34 247.22 441.55 247.23 441.75 247.24 441.95 247.25 442.15 247.25 442.35 247.26 442.55 247.27 442.76 247.28 442.96 247.29 443.16 247.29 443.36 247.3 443.56 247.31 443.76 247.32 443.97 247.32 444.17 247.33 444.37 247.34 444.57 247.35 444.77 247.35 444.97 247.36 445.18 247.37 445.38 247.38 445.58 247.38 445.78 247.39 445.98 247.4 446.18 247.41 446.38 247.41 446.59 247.42 446.79 247.43 446.99 247.44 447.19 247.44 447.39 247.45 447.6 247.46 447.8 247.47 448 247.47 448.2 247.48 448.4 247.49 448.6 247.5 448.81 247.5 449.01 247.51 449.21 247.52 449.41 247.52 449.61 247.53 449.81 247.54 450.01 247.55 450.22 247.55 450.42 247.56 450.62 247.57 450.82 247.57 451.02 247.58 451.23 247.59 451.43 247.59 451.63 247.6 451.83 247.61 452.03 247.62 452.23 247.62 452.44 247.63 452.64 247.64 452.84 247.64 453.04 247.65 453.24 247.66 453.44 247.66 453.64 247.67 453.85 247.68 454.05 247.69 454.25 247.69 454.45 247.7 454.65 247.71 454.86 247.71 455.06 247.72 455.26 247.73 455.46 247.73 455.66 247.74 455.86 247.75 456.06 247.75 456.27 247.76 456.47 247.77 456.67 247.77 456.87 247.78 457.07 247.79 457.27 247.79 457.48 247.8 457.68 247.81 457.88 247.81 458.08 247.82 458.28 247.83 458.49 247.83 458.69 247.84 458.89 247.85 459.09 247.85 459.29 247.86 459.49 247.87 459.69 247.87 459.9 247.88 460.1 247.88 460.3 247.89 460.5 247.9 460.7 247.91 460.9 247.91 461.11 247.92 461.31 247.92 461.51 247.93 461.71 247.94 461.91 247.94 462.12 247.95 462.32 247.96 462.52 247.96 462.72 247.97 462.92 247.97 463.12 247.98 463.32 247.99 463.53 247.99 463.73 248 463.93 248.01 464.13 248.01 464.33 248.02 464.54 248.03 464.74 248.03 464.94 248.04 465.14 248.04 465.34 248.05 465.54 248.06 465.75 248.06 465.95 248.07 466.15 248.07 466.35 248.08 466.55 248.09 466.75 248.09 466.95 248.1 467.16 248.1 467.36 248.11 467.56 248.12 467.76 248.12 467.96 248.13 468.17 248.13 468.37 248.14 468.57 248.15 468.77 248.15 468.97 248.16 469.17 248.16 469.38 248.17 469.58 248.18 469.78 248.18 469.98 248.19 470.18 248.19 470.38 248.2 470.58 248.21 470.79 248.21 470.99 248.22 471.19 248.22 471.39 248.23 471.59 248.24 471.8 248.24 472 248.25 472.2 248.25 472.4 248.26 472.6 248.26 472.8 248.27 473 248.28 473.21 248.28 473.41 248.29 473.61 248.29 473.81 248.3 474.01 248.3 474.21 248.31 474.42 248.31 474.62 248.32 474.82 248.33 475.02 248.33 475.22 248.34 475.43 248.34 475.63 248.35 475.83 248.35 476.03 248.36 476.23 248.37 476.43 248.37 476.63 248.38 476.84 248.38 477.04 248.39 477.24 248.39 477.44 248.4 477.64 248.4 477.84 248.41 478.05 248.41 478.25 248.42 478.45 248.43 478.65 248.43 478.85 248.44 479.05 248.44 479.26 248.45 479.46 248.45 479.66 248.46 479.86 248.46 480.06 248.47 480.26 248.47 480.47 248.48 480.67 248.49 480.87 248.49 481.07 248.5 481.27 248.5 481.47 248.51 481.68 248.51 481.88 248.52 482.08 248.52 482.28 248.53 482.48 248.53 482.68 248.54 482.89 248.54 483.09 248.55 483.29 248.55 483.49 248.56 483.69 248.56 483.89 248.57 484.1 248.57 484.3 248.58 484.5 248.59 484.7 248.59 484.9 248.6 485.1 248.6 485.31 248.61 485.51 248.61 485.71 248.62 485.91 248.62 486.11 248.63 486.31 248.63 486.52 248.64 486.72 248.64 486.92 248.65 487.12 248.65 487.32 248.66 487.52 248.66 487.73 248.67 487.93 248.67 488.13 248.68 488.33 248.68 488.53 248.69 488.73 248.69 488.94 248.7 489.14 248.7 489.34 248.71 489.54 248.71 489.74 248.72 489.94 248.72 490.15 248.73 490.35 248.73 490.55 248.74 490.75 248.74 490.95 248.75 491.15 248.75 491.36 248.76 491.56 248.76 491.76 248.77 491.96 248.77 492.16 248.78 492.36 248.78 492.57 248.78 492.77 248.79 492.97 248.79 493.17 248.8 493.37 248.8 493.57 248.81 493.78 248.81 493.98 248.82 494.18 248.82 494.38 248.83 494.58 248.83 494.78 248.84 494.99 248.84 495.19 248.85 495.39 248.85 495.59 248.86 495.79 248.86 495.99 248.87 496.2 248.87 496.4 248.88 496.6 248.88 496.8 248.88 497 248.89 497.2 248.89 497.41 248.9 497.61 248.9 497.81 248.91 498.01 248.91 498.21 248.92 498.41 248.92 498.62 248.93 498.82 248.93 499.02 248.94 499.22 248.94 499.42 248.94 499.62 248.95 499.82 248.95 500.03 248.96 500.23 248.96 500.43 248.97 500.63 248.97 500.83 248.98 501.04 248.98 501.24 248.99 501.44 248.99 501.64 248.99 501.84 249 502.04 249 502.25 249.01 502.45 249.01 502.65 249.02 502.85 249.02 503.05 249.03 503.25 249.03 503.45 249.03 503.66 249.04 503.86 249.04 504.06 249.05 504.26 249.05 504.46 249.06 504.67 249.06 504.87 249.06 505.07 249.07 505.27 249.07 505.47 249.08 505.67 249.08 505.88 249.09 506.08 249.09 506.28 249.09 506.48 249.1 506.68 249.1"/><polyline class="cls-3" points="0.11 259.88 0.31 259.88 0.52 259.89 0.72 259.89 0.92 259.9 1.12 259.9 1.32 259.9 1.52 259.91 1.73 259.91 1.93 259.92 2.13 259.92 2.33 259.93 2.53 259.93 2.73 259.94 2.94 259.94 3.14 259.94 3.34 259.95 3.54 259.95 3.74 259.96 3.94 259.96 4.14 259.97 4.35 259.97 4.55 259.98 4.75 259.98 4.95 259.98 5.15 259.99 5.36 259.99 5.56 260 5.76 260 5.96 260.01 6.16 260.01 6.36 260.01 6.57 260.02 6.77 260.02 6.97 260.03 7.17 260.03 7.37 260.04 7.57 260.04 7.78 260.05 7.98 260.05 8.18 260.06 8.38 260.06 8.58 260.06 8.78 260.07 8.98 260.07 9.19 260.08 9.39 260.08 9.59 260.09 9.79 260.09 9.99 260.1 10.2 260.1 10.4 260.11 10.6 260.11 10.8 260.12 11 260.12 11.2 260.13 11.4 260.13 11.61 260.13 11.81 260.14 12.01 260.14 12.21 260.15 12.41 260.15 12.62 260.16 12.82 260.16 13.02 260.17 13.22 260.17 13.42 260.18 13.62 260.18 13.82 260.19 14.03 260.19 14.23 260.2 14.43 260.2 14.63 260.2 14.83 260.21 15.03 260.21 15.24 260.22 15.44 260.23 15.64 260.23 15.84 260.23 16.04 260.24 16.24 260.24 16.45 260.25 16.65 260.25 16.85 260.26 17.05 260.26 17.25 260.27 17.45 260.27 17.66 260.28 17.86 260.28 18.06 260.29 18.26 260.29 18.46 260.3 18.66 260.3 18.87 260.31 19.07 260.31 19.27 260.32 19.47 260.32 19.67 260.33 19.87 260.33 20.08 260.34 20.28 260.34 20.48 260.35 20.68 260.35 20.88 260.36 21.08 260.36 21.29 260.37 21.49 260.37 21.69 260.38 21.89 260.38 22.09 260.39 22.29 260.39 22.5 260.4 22.7 260.4 22.9 260.41 23.1 260.42 23.3 260.42 23.5 260.43 23.71 260.43 23.91 260.44 24.11 260.44 24.31 260.45 24.51 260.45 24.71 260.46 24.92 260.46 25.12 260.47 25.32 260.47 25.52 260.48 25.72 260.48 25.92 260.49 26.13 260.49 26.33 260.5 26.53 260.5 26.73 260.51 26.93 260.51 27.13 260.52 27.34 260.53 27.54 260.53 27.74 260.54 27.94 260.54 28.14 260.55 28.34 260.55 28.55 260.56 28.75 260.56 28.95 260.57 29.15 260.57 29.35 260.58 29.55 260.58 29.76 260.59 29.96 260.6 30.16 260.6 30.36 260.61 30.56 260.61 30.76 260.62 30.97 260.62 31.17 260.63 31.37 260.63 31.57 260.64 31.77 260.65 31.97 260.65 32.18 260.66 32.38 260.66 32.58 260.67 32.78 260.67 32.98 260.68 33.18 260.69 33.38 260.69 33.59 260.7 33.79 260.7 33.99 260.71 34.19 260.71 34.39 260.72 34.59 260.73 34.8 260.73 35 260.74 35.2 260.74 35.4 260.75 35.6 260.75 35.8 260.76 36.01 260.76 36.21 260.77 36.41 260.78 36.61 260.78 36.81 260.79 37.02 260.79 37.22 260.8 37.42 260.81 37.62 260.81 37.82 260.82 38.02 260.82 38.23 260.83 38.43 260.84 38.63 260.84 38.83 260.85 39.03 260.85 39.23 260.86 39.44 260.87 39.64 260.87 39.84 260.88 40.04 260.88 40.24 260.89 40.44 260.9 40.65 260.9 40.85 260.91 41.05 260.91 41.25 260.92 41.45 260.93 41.65 260.93 41.85 260.94 42.06 260.94 42.26 260.95 42.46 260.96 42.66 260.96 42.86 260.97 43.06 260.98 43.27 260.98 43.47 260.99 43.67 260.99 43.87 261 44.07 261.01 44.27 261.01 44.48 261.02 44.68 261.02 44.88 261.03 45.08 261.04 45.28 261.04 45.48 261.05 45.69 261.06 45.89 261.06 46.09 261.07 46.29 261.08 46.49 261.08 46.7 261.09 46.9 261.1 47.1 261.1 47.3 261.11 47.5 261.12 47.7 261.12 47.91 261.13 48.11 261.13 48.31 261.14 48.51 261.15 48.71 261.15 48.91 261.16 49.12 261.17 49.32 261.17 49.52 261.18 49.72 261.19 49.92 261.19 50.12 261.2 50.33 261.21 50.53 261.21 50.73 261.22 50.93 261.23 51.13 261.23 51.33 261.24 51.53 261.25 51.74 261.25 51.94 261.26 52.14 261.27 52.34 261.27 52.54 261.28 52.74 261.29 52.95 261.29 53.15 261.3 53.35 261.31 53.55 261.31 53.75 261.32 53.95 261.33 54.16 261.33 54.36 261.34 54.56 261.35 54.76 261.36 54.96 261.36 55.16 261.37 55.37 261.38 55.57 261.38 55.77 261.39 55.97 261.4 56.17 261.4 56.38 261.41 56.58 261.42 56.78 261.43 56.98 261.43 57.18 261.44 57.38 261.45 57.59 261.45 57.79 261.46 57.99 261.47 58.19 261.48 58.39 261.48 58.59 261.49 58.8 261.5 59 261.5 59.2 261.51 59.4 261.52 59.6 261.53 59.8 261.53 60.01 261.54 60.21 261.55 60.41 261.56 60.61 261.56 60.81 261.57 61.01 261.58 61.22 261.58 61.42 261.59 61.62 261.6 61.82 261.61 62.02 261.62 62.22 261.62 62.42 261.63 62.63 261.64 62.83 261.64 63.03 261.65 63.23 261.66 63.43 261.67 63.63 261.68 63.84 261.68 64.04 261.69 64.24 261.7 64.44 261.71 64.64 261.71 64.84 261.72 65.05 261.73 65.25 261.74 65.45 261.75 65.65 261.75 65.85 261.76 66.05 261.77 66.26 261.78 66.46 261.78 66.66 261.79 66.86 261.8 67.06 261.81 67.26 261.81 67.47 261.82 67.67 261.83 67.87 261.84 68.07 261.85 68.27 261.86 68.47 261.86 68.68 261.87 68.88 261.88 69.08 261.89 69.28 261.89 69.48 261.9 69.68 261.91 69.89 261.92 70.09 261.93 70.29 261.94 70.49 261.94 70.69 261.95 70.89 261.96 71.1 261.97 71.3 261.98 71.5 261.99 71.7 261.99 71.9 262 72.1 262.01 72.31 262.02 72.51 262.03 72.71 262.04 72.91 262.04 73.11 262.05 73.31 262.06 73.52 262.07 73.72 262.08 73.92 262.09 74.12 262.09 74.32 262.1 74.52 262.11 74.73 262.12 74.93 262.13 75.13 262.14 75.33 262.15 75.53 262.15 75.73 262.16 75.94 262.17 76.14 262.18 76.34 262.19 76.54 262.2 76.74 262.21 76.94 262.22 77.15 262.22 77.35 262.23 77.55 262.24 77.75 262.25 77.95 262.26 78.15 262.27 78.36 262.28 78.56 262.29 78.76 262.3 78.96 262.31 79.16 262.31 79.36 262.32 79.57 262.33 79.77 262.34 79.97 262.35 80.17 262.36 80.37 262.37 80.57 262.38 80.78 262.39 80.98 262.4 81.18 262.4 81.38 262.41 81.58 262.42 81.78 262.43 81.99 262.44 82.19 262.45 82.39 262.46 82.59 262.47 82.79 262.48 82.99 262.49 83.19 262.5 83.4 262.51 83.6 262.52 83.8 262.53 84 262.54 84.2 262.55 84.41 262.56 84.61 262.56 84.81 262.57 85.01 262.58 85.21 262.59 85.41 262.6 85.61 262.61 85.82 262.62 86.02 262.63 86.22 262.64 86.42 262.65 86.62 262.66 86.83 262.67 87.03 262.68 87.23 262.69 87.43 262.7 87.63 262.71 87.83 262.72 88.03 262.73 88.24 262.74 88.44 262.75 88.64 262.76 88.84 262.77 89.04 262.78 89.25 262.79 89.45 262.8 89.65 262.81 89.85 262.82 90.05 262.83 90.25 262.84 90.45 262.85 90.66 262.86 90.86 262.88 91.06 262.88 91.26 262.89 91.46 262.91 91.67 262.92 91.87 262.93 92.07 262.94 92.27 262.95 92.47 262.96 92.67 262.97 92.88 262.98 93.08 262.99 93.28 263 93.48 263.01 93.68 263.02 93.88 263.03 94.08 263.04 94.29 263.06 94.49 263.06 94.69 263.08 94.89 263.09 95.09 263.1 95.3 263.11 95.5 263.12 95.7 263.13 95.9 263.14 96.1 263.15 96.3 263.16 96.5 263.18 96.71 263.19 96.91 263.2 97.11 263.21 97.31 263.22 97.51 263.23 97.72 263.24 97.92 263.25 98.12 263.26 98.32 263.28 98.52 263.29 98.72 263.3 98.92 263.31 99.13 263.32 99.33 263.33 99.53 263.35 99.73 263.36 99.93 263.37 100.14 263.38 100.34 263.39 100.54 263.4 100.74 263.42 100.94 263.43 101.14 263.44 101.34 263.45 101.55 263.46 101.75 263.47 101.95 263.49 102.15 263.5 102.35 263.51 102.56 263.52 102.76 263.53 102.96 263.55 103.16 263.56 103.36 263.57 103.56 263.58 103.77 263.6 103.97 263.61 104.17 263.62 104.37 263.63 104.57 263.64 104.77 263.66 104.97 263.67 105.18 263.68 105.38 263.69 105.58 263.71 105.78 263.72 105.98 263.73 106.19 263.74 106.39 263.76 106.59 263.77 106.79 263.78 106.99 263.8 107.19 263.81 107.39 263.82 107.6 263.83 107.8 263.85 108 263.86 108.2 263.87 108.4 263.88 108.61 263.9 108.81 263.91 109.01 263.92 109.21 263.94 109.41 263.95 109.61 263.96 109.81 263.98 110.02 263.99 110.22 264 110.42 264.02 110.62 264.03 110.82 264.04 111.03 264.06 111.23 264.07 111.43 264.08 111.63 264.1 111.83 264.11 112.03 264.13 112.23 264.14 112.44 264.15 112.64 264.17 112.84 264.18 113.04 264.19 113.24 264.21 113.44 264.22 113.65 264.24 113.85 264.25 114.05 264.26 114.25 264.28 114.45 264.29 114.65 264.31 114.86 264.32 115.06 264.33 115.26 264.35 115.46 264.36 115.66 264.38 115.86 264.39 116.07 264.41 116.27 264.42 116.47 264.44 116.67 264.45 116.87 264.47 117.07 264.48 117.28 264.5 117.48 264.51 117.68 264.52 117.88 264.54 118.08 264.55 118.28 264.57 118.49 264.58 118.69 264.6 118.89 264.62 119.09 264.63 119.29 264.64 119.49 264.66 119.7 264.68 119.9 264.69 120.1 264.71 120.3 264.72 120.5 264.74 120.7 264.75 120.91 264.77 121.11 264.78 121.31 264.8 121.51 264.81 121.71 264.83 121.91 264.85 122.12 264.86 122.32 264.88 122.52 264.89 122.72 264.91 122.92 264.93 123.12 264.94 123.33 264.96 123.53 264.98 123.73 264.99 123.93 265.01 124.13 265.02 124.33 265.04 124.54 265.06 124.74 265.07 124.94 265.09 125.14 265.11 125.34 265.12 125.54 265.14 125.75 265.16 125.95 265.17 126.15 265.19 126.35 265.21 126.55 265.22 126.75 265.24 126.96 265.26 127.16 265.27 127.36 265.29 127.56 265.31 127.76 265.33 127.96 265.34 128.17 265.36 128.37 265.38 128.57 265.4 128.77 265.41 128.97 265.43 129.17 265.45 129.38 265.47 129.58 265.49 129.78 265.5 129.98 265.52 130.18 265.54 130.38 265.56 130.59 265.57 130.79 265.59 130.99 265.61 131.19 265.63 131.39 265.65 131.59 265.67 131.8 265.68 132 265.7 132.2 265.72 132.4 265.74 132.6 265.76 132.8 265.78 133.01 265.8 133.21 265.81 133.41 265.83 133.61 265.85 133.81 265.87 134.01 265.89 134.22 265.91 134.42 265.93 134.62 265.95 134.82 265.97 135.02 265.99 135.22 266.01 135.43 266.03 135.63 266.05 135.83 266.07 136.03 266.09 136.23 266.11 136.43 266.13 136.63 266.15 136.84 266.17 137.04 266.19 137.24 266.21 137.44 266.23 137.64 266.25 137.84 266.27 138.05 266.29 138.25 266.31 138.45 266.33 138.65 266.35 138.85 266.37 139.06 266.39 139.26 266.41 139.46 266.43 139.66 266.45 139.86 266.48 140.06 266.5 140.26 266.52 140.47 266.54 140.67 266.56 140.87 266.58 141.07 266.61 141.27 266.63 141.47 266.65 141.68 266.67 141.88 266.69 142.08 266.71 142.28 266.74 142.48 266.76 142.69 266.78 142.89 266.8 143.09 266.82 143.29 266.85 143.49 266.87 143.69 266.89 143.9 266.92 144.1 266.94 144.3 266.96 144.5 266.98 144.7 267.01 144.9 267.03 145.1 267.05 145.31 267.08 145.51 267.1 145.71 267.12 145.91 267.15 146.11 267.17 146.31 267.19 146.52 267.22 146.72 267.24 146.92 267.27 147.12 267.29 147.32 267.31 147.53 267.34 147.73 267.36 147.93 267.39 148.13 267.41 148.33 267.44 148.53 267.46 148.74 267.49 148.94 267.51 149.14 267.54 149.34 267.56 149.54 267.59 149.74 267.61 149.94 267.64 150.15 267.67 150.35 267.69 150.55 267.72 150.75 267.74 150.95 267.77 151.16 267.79 151.36 267.82 151.56 267.85 151.76 267.87 151.96 267.9 152.16 267.93 152.37 267.95 152.57 267.98 152.77 268.01 152.97 268.03 153.17 268.06 153.37 268.09 153.57 268.12 153.78 268.14 153.98 268.17 154.18 268.2 154.38 268.23 154.58 268.25 154.78 268.28 154.99 268.31 155.19 268.34 155.39 268.37 155.59 268.39 155.79 268.42 156 268.45 156.2 268.48 156.4 268.51 156.6 268.54 156.8 268.57 157 268.6 157.21 268.63 157.41 268.66 157.61 268.69 157.81 268.72 158.01 268.75 158.21 268.78 158.41 268.81 158.62 268.84 158.82 268.87 159.02 268.9 159.22 268.93 159.42 268.96 159.63 268.99 159.83 269.02 160.03 269.05 160.23 269.08 160.43 269.12 160.63 269.15 160.84 269.18 161.04 269.21 161.24 269.24 161.44 269.27 161.64 269.31 161.84 269.34 162.04 269.37 162.25 269.4 162.45 269.44 162.65 269.47 162.85 269.5 163.05 269.54 163.25 269.57 163.46 269.6 163.66 269.64 163.86 269.67 164.06 269.71 164.26 269.74 164.47 269.77 164.67 269.81 164.87 269.84 165.07 269.88 165.27 269.91 165.47 269.95 165.68 269.98 165.88 270.02 166.08 270.06 166.28 270.09 166.48 270.13 166.68 270.16 166.88 270.2 167.09 270.24 167.29 270.27 167.49 270.31 167.69 270.35 167.89 270.38 168.09 270.42 168.3 270.46 168.5 270.5 168.7 270.54 168.9 270.57 169.1 270.61 169.3 270.65 169.51 270.69 169.71 270.73 169.91 270.77 170.11 270.81 170.31 270.84 170.51 270.88 170.72 270.92 170.92 270.96 171.12 271 171.32 271.04 171.52 271.08 171.72 271.13 171.93 271.17 172.13 271.21 172.33 271.25 172.53 271.29 172.73 271.33 172.93 271.37 173.14 271.42 173.34 271.46 173.54 271.5 173.74 271.54 173.94 271.59 174.14 271.63 174.35 271.67 174.55 271.72 174.75 271.76 174.95 271.81 175.15 271.85 175.35 271.89 175.56 271.94 175.76 271.99 175.96 272.03 176.16 272.08 176.36 272.12 176.56 272.17 176.77 272.21 176.97 272.26 177.17 272.31 177.37 272.35 177.57 272.4 177.77 272.45 177.98 272.5 178.18 272.54 178.38 272.59 178.58 272.64 178.78 272.69 178.98 272.74 179.19 272.79 179.39 272.84 179.59 272.89 179.79 272.94 179.99 272.99 180.19 273.04 180.4 273.09 180.6 273.14 180.8 273.19 181 273.24 181.2 273.3 181.4 273.35 181.61 273.4 181.81 273.45 182.01 273.51 182.21 273.56 182.41 273.62 182.61 273.67 182.82 273.72 183.02 273.78 183.22 273.83 183.42 273.89 183.62 273.94 183.82 274 184.03 274.06 184.23 274.11 184.43 274.17 184.63 274.23 184.83 274.29 185.03 274.34 185.24 274.4 185.44 274.46 185.64 274.52 185.84 274.58 186.04 274.64 186.24 274.7 186.45 274.76 186.65 274.82 186.85 274.88 187.05 274.94 187.25 275 187.45 275.07 187.66 275.13 187.86 275.19 188.06 275.26 188.26 275.32 188.46 275.38 188.66 275.45 188.87 275.51 189.07 275.58 189.27 275.65 189.47 275.71 189.67 275.78 189.87 275.85 190.07 275.91 190.28 275.98 190.48 276.05 190.68 276.12 190.88 276.19 191.08 276.26 191.28 276.33 191.49 276.4 191.69 276.47 191.89 276.54 192.09 276.61 192.29 276.69 192.5 276.76 192.7 276.83 192.9 276.91 193.1 276.98 193.3 277.06 193.5 277.13 193.71 277.21 193.91 277.28 194.11 277.36 194.31 277.44 194.51 277.52 194.71 277.59 194.91 277.67 195.12 277.75 195.32 277.83 195.52 277.91 195.72 278 195.92 278.08 196.13 278.16 196.33 278.24 196.53 278.33 196.73 278.41 196.93 278.5 197.13 278.58 197.34 278.67 197.54 278.75 197.74 278.84 197.94 278.93 198.14 279.02 198.34 279.11 198.54 279.2 198.75 279.29 198.95 279.38 199.15 279.47 199.35 279.56 199.55 279.65 199.75 279.75 199.96 279.84 200.16 279.94 200.36 280.03 200.56 280.13 200.76 280.23 200.97 280.33 201.17 280.43 201.37 280.52 201.57 280.63 201.77 280.73 201.97 280.83 202.18 280.93 202.38 281.04 202.58 281.14 202.78 281.25 202.98 281.35 203.18 281.46 203.38 281.57 203.59 281.68 203.79 281.79 203.99 281.89 204.19 282.01 204.39 282.12 204.59 282.23 204.8 282.35 205 282.46 205.2 282.58 205.4 282.69 205.6 282.81 205.81 282.93 206.01 283.05 206.21 283.17 206.41 283.29 206.61 283.42 206.81 283.54 207.01 283.67 207.22 283.79 207.42 283.92 207.62 284.05 207.82 284.18 208.02 284.31 208.22 284.44 208.43 284.57 208.63 284.71 208.83 284.84 209.03 284.98 209.23 285.12 209.44 285.26 209.64 285.4 209.84 285.54 210.04 285.68 210.24 285.83 210.44 285.97 210.65 286.12 210.85 286.27 211.05 286.42 211.25 286.57 211.45 286.72 211.65 286.88 211.85 287.03 212.06 287.19 212.26 287.35 212.46 287.51 212.66 287.67 212.86 287.83 213.06 288 213.27 288.17 213.47 288.33 213.67 288.5 213.87 288.68 214.07 288.85 214.28 289.02 214.48 289.2 214.68 289.38 214.88 289.56 215.08 289.74 215.28 289.93 215.49 290.11 215.69 290.3 215.89 290.49 216.09 290.69 216.29 290.88 216.49 291.08 216.69 291.27 216.9 291.48 217.1 291.68 217.3 291.88 217.5 292.09 217.7 292.3 217.9 292.51 218.11 292.73 218.31 292.95 218.51 293.17 218.71 293.39 218.91 293.61 219.12 293.84 219.32 294.07 219.52 294.3 219.72 294.54 219.92 294.78 220.12 295.02 220.32 295.26 220.53 295.51 220.73 295.76 220.93 296.01 221.13 296.27 221.33 296.53 221.53 296.79 221.74 297.06 221.94 297.33 222.14 297.6 222.34 297.88 222.54 298.15 222.74 298.44 222.95 298.73 223.15 299.02 223.35 299.31 223.55 299.61 223.75 299.91 223.95 300.22 224.16 300.53 224.36 300.85 224.56 301.17 224.76 301.49 224.96 301.82 225.16 302.15 225.37 302.49 225.57 302.83 225.77 303.18 225.97 303.53 226.17 303.89 226.37 304.25 226.58 304.62 226.78 305 226.98 305.38 227.18 305.76 227.38 306.15 227.58 306.55 227.79 306.95 227.99 307.36 228.19 307.78 228.39 308.2 228.59 308.63 228.79 309.07 229 309.51 229.2 309.96 229.4 310.42 229.6 310.89 229.8 311.36 230 311.84 230.21 312.33 230.41 312.83 230.61 313.34 230.81 313.86 231.01 314.38 231.21 314.92 231.42 315.46 231.62 316.01 231.82 316.58 232.02 317.15 232.22 317.74 232.42 318.34 232.63 318.94 232.83 319.56 233.03 320.19 233.23 320.84 233.43 321.5 233.63 322.17 233.84 322.85 234.04 323.55 234.24 324.26 234.44 324.99 234.64 325.73 234.84 326.49 234.94 326.87 235.05 327.26 235.15 327.65 235.25 328.05 235.35 328.45 235.45 328.86 235.55 329.27 235.65 329.68 235.75 330.1 235.85 330.53 235.95 330.96 236.05 331.39 236.16 331.83 236.26 332.28 236.36 332.73 236.46 333.18 236.56 333.64 236.66 334.11 236.76 334.58 236.86 335.06 236.96 335.54 237.06 336.02 237.16 336.52 237.26 337.02 237.37 337.53 237.47 338.04 237.57 338.56 237.67 339.08 237.77 339.61 237.87 340.15 237.97 340.7 238.07 341.25 238.17 341.81 238.27 342.38 238.37 342.95 238.47 343.53 238.57 344.12 238.68 344.72 238.78 345.33 238.88 345.94 238.98 346.56 239.08 347.19 239.18 347.83 239.28 348.48 239.38 349.14 239.48 349.8 239.58 350.48 239.68 351.17 239.78 351.86 239.88 352.57 239.99 353.28 240.09 354.01 240.19 354.75 240.29 355.49 240.39 356.25 240.49 357.02 240.59 357.81 240.69 358.6 240.79 359.41 240.89 360.23 241 361.06 241.09 361.91 241.2 362.77 241.3 363.64 241.4 364.53 241.5 365.43 241.6 366.35 241.7 367.28 241.8 368.22 241.9 369.19 242 370.17 242.1 371.17 242.21 372.18 242.31 373.21 242.41 374.26 242.51 375.33 242.61 376.42 242.71 377.53 242.81 378.66 242.91 379.81 243.01 380.98 243.11 382.17 243.21 383.39 243.31 384.63 243.41 385.89 243.51 387.18 243.62 388.49 243.72 389.83 243.82 391.2 243.92 392.59 244.02 394.02 244.12 395.47 244.22 396.95 244.32 398.47 244.42 400.02 244.52 401.6 244.62 403.22 244.72 404.87 244.83 406.56 244.93 408.29 245.03 410.05 245.13 411.86 245.23 413.71 245.33 415.61 245.43 417.55 245.53 419.54 245.63 421.58 245.73 423.67 245.83 425.81 245.94 428 246.04 430.26 246.14 432.57 246.24 434.94 246.34 437.38 246.44 439.89 246.54 442.46 246.64 445.11 246.74 447.83 246.84 450.63 246.94 453.52 247.04 456.49 247.15 459.55 247.25 462.7 247.35 465.96 247.45 469.31 247.55 472.78 247.65 476.36 247.75 480.05 247.85 483.88 247.95 487.83 248.05 491.92 248.15 496.16 248.25 500.56 248.35 505.12"/><text class="cls-2" transform="translate(272.6 158.1)">A</text></svg>