<svg id="Layer_1" data-name="Layer 1" xmlns="http://www.w3.org/2000/svg" viewBox="0 0 506.88 509"><defs><style>.cls-1,.cls-3{fill:none;stroke:#000;stroke-miterlimit:10;}.cls-1{stroke-width:1.5px;}.cls-2{font-size:25px;font-family:Helvetica;}</style></defs><title>26.1.4</title><polygon points="506.79 254.5 496.79 249.5 499.79 254.5 496.79 259.5 506.79 254.5"/><line class="cls-1" x1="0.19" y1="254.5" x2="506.79" y2="254.5"/><text class="cls-2" transform="translate(229.1 278.39)">O</text><line class="cls-1" x1="253.99" y1="258.5" x2="253.99" y2="250.5"/><path d="M488.06,266.52a.56.56,0,0,1,.21-.49.72.72,0,0,1,.43-.15.76.76,0,0,1,.21,0,1,1,0,0,1,.23.11l.31.16a.34.34,0,0,0,.11.05h.13a.45.45,0,0,0,.34-.11,9.25,9.25,0,0,0,.61-.76c.22-.29.71-1,1.48-2.11,0,0-.07-.35-.2-.94s-.26-1.09-.37-1.5a3.54,3.54,0,0,0-.3-.82.55.55,0,0,0-.49-.2,2.45,2.45,0,0,0-.49.09l-.49.12-.08-.27,1-.33a6.5,6.5,0,0,1,.69-.21,2.07,2.07,0,0,1,.55-.08.69.69,0,0,1,.56.22,3.34,3.34,0,0,1,.47,1.38l.19,1a14.07,14.07,0,0,1,1.23-1.71,3.63,3.63,0,0,1,.74-.67,1.36,1.36,0,0,1,.67-.22,1.16,1.16,0,0,1,.49.09.61.61,0,0,1,.33.6.62.62,0,0,1-.17.46.54.54,0,0,1-.43.17l-.18,0a.89.89,0,0,1-.19-.07l-.23-.09-.18-.08-.13,0c-.27,0-.63.34-1.1,1a4.68,4.68,0,0,0-.7,1.18,6.09,6.09,0,0,0,.16.85c.11.49.23,1,.36,1.54a6.71,6.71,0,0,0,.29,1.05c.14.32.29.48.46.48A.67.67,0,0,0,495,266a9.66,9.66,0,0,0,.74-.94l.25.14a7,7,0,0,1-.78,1.17,2.07,2.07,0,0,1-1.46.92.78.78,0,0,1-.7-.42,3.57,3.57,0,0,1-.29-.81l-.54-2.17-1.8,2.36a6.34,6.34,0,0,1-.82.83,1.14,1.14,0,0,1-.7.21.82.82,0,0,1-.77-.35A.9.9,0,0,1,488.06,266.52Z" transform="translate(0.19)"/><polygon points="253.99 0 248.99 10 253.99 7 258.99 10 253.99 0"/><line class="cls-1" x1="253.99" y1="509" x2="253.99"/><line class="cls-1" x1="249.99" y1="254.5" x2="257.99" y2="254.5"/><path d="M266.69,20.9a.72.72,0,0,1,.17-.48.64.64,0,0,1,.51-.21.8.8,0,0,1,.39.09,1.37,1.37,0,0,1,.35.24l.13.09a.24.24,0,0,0,.11.06.39.39,0,0,0,.15,0c.29,0,.75-.38,1.38-1.13a3.38,3.38,0,0,0,1-1.66,10.84,10.84,0,0,0-.33-1.93c-.22-1-.43-1.82-.64-2.57a8.93,8.93,0,0,0-.79-2.15,1.16,1.16,0,0,0-1.05-.56l-.18,0-.43,0v-.29l2.4-.45.18,0c.15,0,.43.64.85,2a23,23,0,0,1,.7,2.62l.35,2.09c.62-1,1.07-1.82,1.35-2.38a6.07,6.07,0,0,0,.85-2.27.8.8,0,0,0-.06-.3.48.48,0,0,0-.24-.25l-.15-.08a1.26,1.26,0,0,1-.33-.26.69.69,0,0,1-.19-.52.65.65,0,0,1,.18-.46.68.68,0,0,1,.52-.18,1,1,0,0,1,.72.26,1.19,1.19,0,0,1,.27.88,8,8,0,0,1-1,3A31.43,31.43,0,0,1,272,17.25a26.13,26.13,0,0,1-2.1,2.87c-.93,1.07-1.7,1.6-2.32,1.6a1,1,0,0,1-.63-.22A.72.72,0,0,1,266.69,20.9Z" transform="translate(0.19)"/><polyline class="cls-3" points="247.74 3.88 247.63 8.44 247.53 12.84 247.43 17.08 247.33 21.17 247.23 25.12 247.13 28.95 247.03 32.65 246.93 36.22 246.83 39.69 246.73 43.04 246.63 46.3 246.53 49.45 246.43 52.51 246.32 55.48 246.22 58.37 246.12 61.17 246.02 63.89 245.92 66.54 245.82 69.11 245.72 71.62 245.62 74.06 245.52 76.43 245.42 78.74 245.31 81 245.22 83.19 245.11 85.33 245.01 87.42 244.91 89.46 244.81 91.45 244.71 93.39 244.61 95.29 244.51 97.14 244.41 98.95 244.31 100.71 244.21 102.44 244.1 104.13 244 105.78 243.9 107.4 243.8 108.98 243.7 110.53 243.6 112.05 243.5 113.53 243.4 114.98 243.3 116.41 243.2 117.8 243.1 119.17 243 120.51 242.9 121.82 242.79 123.11 242.69 124.37 242.59 125.61 242.49 126.83 242.39 128.02 242.29 129.19 242.19 130.34 242.09 131.47 241.99 132.58 241.89 133.67 241.79 134.74 241.69 135.79 241.59 136.82 241.48 137.84 241.38 138.83 241.28 139.81 241.18 140.78 241.08 141.72 240.98 142.66 240.88 143.57 240.78 144.47 240.68 145.36 240.58 146.23 240.48 147.09 240.38 147.94 240.27 148.77 240.17 149.59 240.07 150.4 239.97 151.19 239.87 151.98 239.77 152.75 239.67 153.51 239.57 154.25 239.47 154.99 239.37 155.72 239.27 156.43 239.16 157.14 239.06 157.83 238.96 158.52 238.86 159.2 238.76 159.86 238.66 160.52 238.56 161.17 238.46 161.81 238.36 162.44 238.26 163.06 238.16 163.67 238.06 164.28 237.96 164.88 237.85 165.47 237.75 166.05 237.65 166.62 237.55 167.19 237.45 167.75 237.35 168.3 237.25 168.85 237.15 169.39 237.05 169.92 236.95 170.44 236.85 170.96 236.75 171.47 236.64 171.98 236.54 172.48 236.44 172.97 236.34 173.46 236.24 173.94 236.14 174.42 236.04 174.89 235.94 175.36 235.84 175.82 235.74 176.27 235.64 176.72 235.53 177.17 235.43 177.61 235.33 178.04 235.23 178.47 235.13 178.9 235.03 179.32 234.93 179.73 234.83 180.14 234.73 180.55 234.63 180.95 234.53 181.35 234.43 181.74 234.32 182.13 234.22 182.51 234.02 183.27 233.82 184.01 233.62 184.74 233.42 185.45 233.22 186.15 233.01 186.83 232.81 187.5 232.61 188.16 232.41 188.81 232.21 189.44 232.01 190.06 231.8 190.66 231.6 191.26 231.4 191.85 231.2 192.42 231 192.99 230.8 193.54 230.59 194.08 230.39 194.62 230.19 195.14 229.99 195.66 229.79 196.17 229.59 196.67 229.38 197.16 229.18 197.64 228.98 198.11 228.78 198.58 228.58 199.04 228.38 199.49 228.17 199.93 227.97 200.37 227.77 200.8 227.57 201.22 227.37 201.64 227.17 202.05 226.96 202.45 226.76 202.85 226.56 203.24 226.36 203.62 226.16 204 225.96 204.38 225.75 204.75 225.55 205.11 225.35 205.47 225.15 205.82 224.95 206.17 224.75 206.51 224.54 206.85 224.34 207.18 224.14 207.51 223.94 207.83 223.74 208.15 223.54 208.47 223.33 208.78 223.13 209.09 222.93 209.39 222.73 209.69 222.53 209.98 222.33 210.27 222.12 210.56 221.92 210.84 221.72 211.12 221.52 211.4 221.32 211.67 221.12 211.94 220.91 212.21 220.71 212.47 220.51 212.73 220.31 212.99 220.11 213.24 219.91 213.49 219.71 213.74 219.5 213.98 219.3 214.22 219.1 214.46 218.9 214.7 218.7 214.93 218.5 215.16 218.29 215.39 218.09 215.61 217.89 215.83 217.69 216.05 217.49 216.27 217.28 216.49 217.08 216.7 216.88 216.91 216.68 217.12 216.48 217.32 216.28 217.52 216.07 217.72 215.87 217.92 215.67 218.12 215.47 218.31 215.27 218.51 215.07 218.7 214.87 218.89 214.66 219.07 214.46 219.26 214.26 219.44 214.06 219.62 213.86 219.8 213.66 219.98 213.45 220.15 213.25 220.32 213.05 220.5 212.85 220.67 212.65 220.84 212.44 221 212.24 221.17 212.04 221.33 211.84 221.49 211.64 221.65 211.44 221.81 211.24 221.97 211.03 222.12 210.83 222.28 210.63 222.43 210.43 222.58 210.23 222.73 210.03 222.88 209.82 223.03 209.62 223.17 209.42 223.32 209.22 223.46 209.02 223.6 208.81 223.74 208.61 223.88 208.41 224.02 208.21 224.16 208.01 224.29 207.81 224.43 207.6 224.56 207.4 224.69 207.2 224.82 207 224.95 206.8 225.08 206.6 225.21 206.4 225.33 206.19 225.46 205.99 225.58 205.79 225.71 205.59 225.83 205.39 225.95 205.19 226.07 204.98 226.19 204.78 226.31 204.58 226.42 204.38 226.54 204.18 226.65 203.97 226.77 203.77 226.88 203.57 226.99 203.37 227.1 203.17 227.22 202.97 227.32 202.76 227.43 202.56 227.54 202.36 227.65 202.16 227.75 201.96 227.86 201.76 227.96 201.56 228.07 201.35 228.17 201.15 228.27 200.95 228.37 200.75 228.47 200.55 228.57 200.34 228.67 200.14 228.77 199.94 228.87 199.74 228.97 199.54 229.06 199.34 229.16 199.13 229.25 198.93 229.34 198.73 229.44 198.53 229.53 198.33 229.62 198.13 229.71 197.93 229.8 197.72 229.89 197.52 229.98 197.32 230.07 197.12 230.16 196.92 230.25 196.72 230.33 196.51 230.42 196.31 230.5 196.11 230.59 195.91 230.67 195.71 230.76 195.5 230.84 195.3 230.92 195.1 231 194.9 231.09 194.7 231.17 194.5 231.25 194.29 231.33 194.09 231.41 193.89 231.48 193.69 231.56 193.49 231.64 193.29 231.72 193.09 231.79 192.88 231.87 192.68 231.94 192.48 232.02 192.28 232.09 192.08 232.17 191.88 232.24 191.67 232.31 191.47 232.39 191.27 232.46 191.07 232.53 190.87 232.6 190.67 232.67 190.46 232.74 190.26 232.81 190.06 232.88 189.86 232.95 189.66 233.02 189.46 233.09 189.25 233.15 189.05 233.22 188.85 233.29 188.65 233.35 188.45 233.42 188.25 233.49 188.04 233.55 187.84 233.62 187.64 233.68 187.44 233.74 187.24 233.81 187.04 233.87 186.83 233.93 186.63 234 186.43 234.06 186.23 234.12 186.03 234.18 185.83 234.24 185.62 234.3 185.42 234.36 185.22 234.42 185.02 234.48 184.82 234.54 184.62 234.6 184.41 234.66 184.21 234.72 184.01 234.77 183.81 234.83 183.61 234.89 183.41 234.94 183.2 235 183 235.06 182.8 235.11 182.6 235.17 182.4 235.22 182.2 235.28 181.99 235.33 181.79 235.38 181.59 235.44 181.39 235.49 181.19 235.55 180.99 235.6 180.78 235.65 180.58 235.7 180.38 235.76 180.18 235.81 179.98 235.86 179.78 235.91 179.57 235.96 179.37 236.01 179.17 236.06 178.97 236.11 178.77 236.16 178.57 236.21 178.36 236.26 178.16 236.31 177.96 236.36 177.76 236.41 177.56 236.46 177.36 236.5 177.15 236.55 176.95 236.6 176.75 236.65 176.55 236.69 176.35 236.74 176.15 236.79 175.94 236.83 175.74 236.88 175.54 236.92 175.34 236.97 175.14 237.01 174.94 237.06 174.73 237.1 174.53 237.15 174.33 237.19 174.13 237.24 173.93 237.28 173.73 237.33 173.52 237.37 173.32 237.41 173.12 237.46 172.92 237.5 172.72 237.54 172.52 237.58 172.31 237.63 172.11 237.67 171.91 237.71 171.71 237.75 171.51 237.79 171.31 237.83 171.1 237.88 170.9 237.91 170.7 237.96 170.5 238 170.3 238.04 170.1 238.08 169.9 238.12 169.69 238.16 169.49 238.19 169.29 238.23 169.09 238.27 168.89 238.31 168.69 238.35 168.48 238.39 168.28 238.43 168.08 238.47 167.88 238.5 167.68 238.54 167.47 238.58 167.27 238.62 167.07 238.65 166.87 238.69 166.67 238.73 166.47 238.76 166.26 238.8 166.06 238.84 165.86 238.87 165.66 238.91 165.46 238.94 165.26 238.98 165.06 239.02 164.85 239.05 164.65 239.09 164.45 239.12 164.25 239.16 164.05 239.19 163.84 239.22 163.64 239.26 163.44 239.29 163.24 239.33 163.04 239.36 162.84 239.4 162.63 239.43 162.43 239.46 162.23 239.5 162.03 239.53 161.83 239.56 161.63 239.6 161.43 239.63 161.22 239.66 161.02 239.69 160.82 239.73 160.62 239.76 160.42 239.79 160.22 239.82 160.01 239.85 159.81 239.88 159.61 239.92 159.41 239.95 159.21 239.98 159 240.01 158.8 240.04 158.6 240.07 158.4 240.1 158.2 240.13 158 240.16 157.79 240.19 157.59 240.22 157.39 240.25 157.19 240.28 156.99 240.31 156.79 240.34 156.59 240.37 156.38 240.4 156.18 240.43 155.98 240.46 155.78 240.49 155.58 240.52 155.38 240.55 155.17 240.58 154.97 240.61 154.77 240.63 154.57 240.66 154.37 240.69 154.16 240.72 153.96 240.75 153.76 240.78 153.56 240.8 153.36 240.83 153.16 240.86 152.96 240.88 152.75 240.91 152.55 240.94 152.35 240.97 152.15 240.99 151.95 241.02 151.75 241.05 151.54 241.07 151.34 241.1 151.14 241.13 150.94 241.15 150.74 241.18 150.53 241.21 150.33 241.23 150.13 241.26 149.93 241.28 149.73 241.31 149.53 241.34 149.32 241.36 149.12 241.39 148.92 241.41 148.72 241.44 148.52 241.46 148.32 241.49 148.12 241.51 147.91 241.54 147.71 241.56 147.51 241.59 147.31 241.61 147.11 241.64 146.91 241.66 146.7 241.69 146.5 241.71 146.3 241.73 146.1 241.76 145.9 241.78 145.69 241.81 145.49 241.83 145.29 241.85 145.09 241.88 144.89 241.9 144.69 241.92 144.49 241.95 144.28 241.97 144.08 241.99 143.88 242.02 143.68 242.04 143.48 242.06 143.28 242.08 143.07 242.11 142.87 242.13 142.67 242.15 142.47 242.18 142.27 242.2 142.06 242.22 141.86 242.24 141.66 242.26 141.46 242.29 141.26 242.31 141.06 242.33 140.85 242.35 140.65 242.37 140.45 242.4 140.25 242.42 140.05 242.44 139.85 242.46 139.65 242.48 139.44 242.5 139.24 242.52 139.04 242.54 138.84 242.57 138.64 242.59 138.44 242.61 138.23 242.63 138.03 242.65 137.83 242.67 137.63 242.69 137.43 242.71 137.23 242.73 137.02 242.75 136.82 242.77 136.62 242.79 136.42 242.81 136.22 242.83 136.02 242.85 135.81 242.87 135.61 242.89 135.41 242.91 135.21 242.93 135.01 242.95 134.81 242.97 134.6 242.99 134.4 243.01 134.2 243.03 134 243.05 133.8 243.07 133.6 243.09 133.39 243.11 133.19 243.13 132.99 243.15 132.79 243.17 132.59 243.19 132.39 243.2 132.18 243.22 131.98 243.24 131.78 243.26 131.58 243.28 131.38 243.3 131.18 243.32 130.97 243.33 130.77 243.35 130.57 243.37 130.37 243.39 130.17 243.41 129.97 243.43 129.76 243.44 129.56 243.46 129.36 243.48 129.16 243.5 128.96 243.51 128.76 243.53 128.55 243.55 128.35 243.57 128.15 243.59 127.95 243.6 127.75 243.62 127.55 243.64 127.34 243.66 127.14 243.67 126.94 243.69 126.74 243.71 126.54 243.72 126.34 243.74 126.13 243.76 125.93 243.78 125.73 243.79 125.53 243.81 125.33 243.83 125.13 243.84 124.92 243.86 124.72 243.88 124.52 243.89 124.32 243.91 124.12 243.93 123.92 243.94 123.71 243.96 123.51 243.98 123.31 243.99 123.11 244.01 122.91 244.03 122.71 244.04 122.5 244.06 122.3 244.07 122.1 244.09 121.9 244.11 121.7 244.12 121.5 244.14 121.29 244.15 121.09 244.17 120.89 244.19 120.69 244.2 120.49 244.22 120.29 244.23 120.08 244.25 119.88 244.26 119.68 244.28 119.48 244.29 119.28 244.31 119.08 244.32 118.87 244.34 118.67 244.35 118.47 244.37 118.27 244.38 118.07 244.4 117.87 244.42 117.67 244.43 117.46 244.45 117.26 244.46 117.06 244.47 116.86 244.49 116.66 244.5 116.45 244.52 116.25 244.53 116.05 244.55 115.85 244.56 115.65 244.58 115.45 244.59 115.25 244.61 115.04 244.62 114.84 244.64 114.64 244.65 114.44 244.66 114.24 244.68 114.03 244.69 113.83 244.71 113.63 244.72 113.43 244.74 113.23 244.75 113.03 244.76 112.83 244.78 112.62 244.79 112.42 244.81 112.22 244.82 112.02 244.83 111.82 244.85 111.61 244.86 111.41 244.88 111.21 244.89 111.01 244.9 110.81 244.92 110.61 244.93 110.41 244.94 110.2 244.96 110 244.97 109.8 244.98 109.6 245 109.4 245.01 109.19 245.02 108.99 245.04 108.79 245.05 108.59 245.06 108.39 245.08 108.19 245.09 107.98 245.1 107.78 245.12 107.58 245.13 107.38 245.14 107.18 245.15 106.98 245.17 106.78 245.18 106.57 245.19 106.37 245.21 106.17 245.22 105.97 245.23 105.77 245.24 105.56 245.26 105.36 245.27 105.16 245.28 104.96 245.29 104.76 245.31 104.56 245.32 104.36 245.33 104.15 245.34 103.95 245.36 103.75 245.37 103.55 245.38 103.35 245.39 103.14 245.41 102.94 245.42 102.74 245.43 102.54 245.44 102.34 245.45 102.14 245.47 101.94 245.48 101.73 245.49 101.53 245.5 101.33 245.51 101.13 245.53 100.93 245.54 100.72 245.55 100.52 245.56 100.32 245.57 100.12 245.59 99.92 245.6 99.72 245.61 99.52 245.62 99.31 245.63 99.11 245.64 98.91 245.66 98.71 245.67 98.51 245.68 98.31 245.69 98.1 245.7 97.9 245.71 97.7 245.72 97.5 245.74 97.3 245.75 97.09 245.76 96.89 245.77 96.69 245.78 96.49 245.79 96.29 245.8 96.09 245.81 95.89 245.82 95.68 245.84 95.48 245.85 95.28 245.86 95.08 245.87 94.88 245.88 94.67 245.89 94.47 245.9 94.27 245.91 94.07 245.92 93.87 245.94 93.67 245.94 93.47 245.96 93.26 245.97 93.06 245.98 92.86 245.99 92.66 246 92.46 246.01 92.25 246.02 92.05 246.03 91.85 246.04 91.65 246.05 91.45 246.06 91.25 246.07 91.05 246.08 90.84 246.09 90.64 246.1 90.44 246.12 90.24 246.13 90.04 246.14 89.83 246.15 89.63 246.16 89.43 246.17 89.23 246.18 89.03 246.19 88.83 246.2 88.63 246.21 88.42 246.22 88.22 246.23 88.02 246.24 87.82 246.25 87.62 246.26 87.42 246.27 87.21 246.28 87.01 246.29 86.81 246.3 86.61 246.31 86.41 246.32 86.21 246.33 86 246.34 85.8 246.35 85.6 246.36 85.4 246.37 85.2 246.38 85 246.39 84.79 246.4 84.59 246.41 84.39 246.42 84.19 246.43 83.99 246.44 83.79 246.44 83.58 246.45 83.38 246.46 83.18 246.47 82.98 246.48 82.78 246.49 82.58 246.5 82.37 246.51 82.17 246.52 81.97 246.53 81.77 246.54 81.57 246.55 81.37 246.56 81.16 246.57 80.96 246.58 80.76 246.59 80.56 246.59 80.36 246.6 80.16 246.61 79.95 246.62 79.75 246.63 79.55 246.64 79.35 246.65 79.15 246.66 78.95 246.67 78.74 246.68 78.54 246.69 78.34 246.69 78.14 246.7 77.94 246.71 77.74 246.72 77.53 246.73 77.33 246.74 77.13 246.75 76.93 246.76 76.73 246.77 76.53 246.78 76.32 246.78 76.12 246.79 75.92 246.8 75.72 246.81 75.52 246.82 75.32 246.83 75.11 246.84 74.91 246.85 74.71 246.85 74.51 246.86 74.31 246.87 74.11 246.88 73.9 246.89 73.7 246.9 73.5 246.91 73.3 246.91 73.1 246.92 72.9 246.93 72.69 246.94 72.49 246.95 72.29 246.96 72.09 246.97 71.89 246.97 71.69 246.98 71.48 246.99 71.28 247 71.08 247.01 70.88 247.01 70.68 247.02 70.48 247.03 70.27 247.04 70.07 247.05 69.87 247.06 69.67 247.06 69.47 247.07 69.27 247.08 69.06 247.09 68.86 247.1 68.66 247.1 68.46 247.11 68.26 247.12 68.06 247.13 67.85 247.14 67.65 247.15 67.45 247.15 67.25 247.16 67.05 247.17 66.85 247.18 66.64 247.19 66.44 247.19 66.24 247.2 66.04 247.21 65.84 247.22 65.64 247.22 65.44 247.23 65.23 247.24 65.03 247.25 64.83 247.25 64.63 247.26 64.43 247.27 64.22 247.28 64.02 247.29 63.82 247.29 63.62 247.3 63.42 247.31 63.22 247.32 63.02 247.32 62.81 247.33 62.61 247.34 62.41 247.35 62.21 247.35 62.01 247.36 61.8 247.37 61.6 247.38 61.4 247.38 61.2 247.39 61 247.4 60.8 247.41 60.59 247.41 60.39 247.42 60.19 247.43 59.99 247.44 59.79 247.44 59.59 247.45 59.38 247.46 59.18 247.47 58.98 247.47 58.78 247.48 58.58 247.49 58.38 247.5 58.17 247.5 57.97 247.51 57.77 247.52 57.57 247.52 57.37 247.53 57.17 247.54 56.97 247.55 56.76 247.55 56.56 247.56 56.36 247.57 56.16 247.57 55.96 247.58 55.76 247.59 55.55 247.59 55.35 247.6 55.15 247.61 54.95 247.62 54.75 247.62 54.55 247.63 54.34 247.64 54.14 247.64 53.94 247.65 53.74 247.66 53.54 247.66 53.34 247.67 53.13 247.68 52.93 247.69 52.73 247.69 52.53 247.7 52.33 247.71 52.13 247.71 51.92 247.72 51.72 247.73 51.52 247.73 51.32 247.74 51.12 247.75 50.91 247.75 50.71 247.76 50.51 247.77 50.31 247.77 50.11 247.78 49.91 247.79 49.7 247.79 49.5 247.8 49.3 247.81 49.1 247.81 48.9 247.82 48.7 247.83 48.49 247.83 48.29 247.84 48.09 247.85 47.89 247.85 47.69 247.86 47.49 247.87 47.28 247.87 47.08 247.88 46.88 247.88 46.68 247.89 46.48 247.9 46.28 247.91 46.08 247.91 45.87 247.92 45.67 247.92 45.47 247.93 45.27 247.94 45.07 247.94 44.87 247.95 44.66 247.96 44.46 247.96 44.26 247.97 44.06 247.97 43.86 247.98 43.66 247.99 43.45 247.99 43.25 248 43.05 248.01 42.85 248.01 42.65 248.02 42.45 248.03 42.24 248.03 42.04 248.04 41.84 248.04 41.64 248.05 41.44 248.06 41.23 248.06 41.03 248.07 40.83 248.07 40.63 248.08 40.43 248.09 40.23 248.09 40.02 248.1 39.82 248.1 39.62 248.11 39.42 248.12 39.22 248.12 39.02 248.13 38.81 248.13 38.61 248.14 38.41 248.15 38.21 248.15 38.01 248.16 37.81 248.16 37.6 248.17 37.4 248.18 37.2 248.18 37 248.19 36.8 248.19 36.6 248.2 36.4 248.21 36.19 248.21 35.99 248.22 35.79 248.22 35.59 248.23 35.39 248.24 35.19 248.24 34.98 248.25 34.78 248.25 34.58 248.26 34.38 248.26 34.18 248.27 33.98 248.28 33.77 248.28 33.57 248.29 33.37 248.29 33.17 248.3 32.97 248.3 32.77 248.31 32.56 248.31 32.36 248.32 32.16 248.33 31.96 248.33 31.76 248.34 31.56 248.34 31.35 248.35 31.15 248.35 30.95 248.36 30.75 248.37 30.55 248.37 30.35 248.38 30.14 248.38 29.94 248.39 29.74 248.39 29.54 248.4 29.34 248.4 29.14 248.41 28.93 248.41 28.73 248.42 28.53 248.43 28.33 248.43 28.13 248.44 27.93 248.44 27.72 248.45 27.52 248.45 27.32 248.46 27.12 248.46 26.92 248.47 26.72 248.47 26.51 248.48 26.31 248.49 26.11 248.49 25.91 248.5 25.71 248.5 25.51 248.51 25.3 248.51 25.1 248.52 24.9 248.52 24.7 248.53 24.5 248.53 24.3 248.54 24.09 248.54 23.89 248.55 23.69 248.55 23.49 248.56 23.29 248.56 23.09 248.57 22.88 248.57 22.68 248.58 22.48 248.59 22.28 248.59 22.08 248.6 21.88 248.6 21.67 248.61 21.47 248.61 21.27 248.62 21.07 248.62 20.87 248.63 20.67 248.63 20.46 248.64 20.26 248.64 20.06 248.65 19.86 248.65 19.66 248.66 19.46 248.66 19.25 248.67 19.05 248.67 18.85 248.68 18.65 248.68 18.45 248.69 18.25 248.69 18.04 248.7 17.84 248.7 17.64 248.71 17.44 248.71 17.24 248.72 17.04 248.72 16.83 248.73 16.63 248.73 16.43 248.74 16.23 248.74 16.03 248.75 15.83 248.75 15.62 248.76 15.42 248.76 15.22 248.77 15.02 248.77 14.82 248.78 14.62 248.78 14.41 248.78 14.21 248.79 14.01 248.79 13.81 248.8 13.61 248.8 13.41 248.81 13.21 248.81 13 248.82 12.8 248.82 12.6 248.83 12.4 248.83 12.2 248.84 11.99 248.84 11.79 248.85 11.59 248.85 11.39 248.86 11.19 248.86 10.99 248.87 10.79 248.87 10.58 248.88 10.38 248.88 10.18 248.88 9.98 248.89 9.78 248.89 9.57 248.9 9.37 248.9 9.17 248.91 8.97 248.91 8.77 248.92 8.57 248.92 8.37 248.93 8.16 248.93 7.96 248.94 7.76 248.94 7.56 248.94 7.36 248.95 7.16 248.95 6.95 248.96 6.75 248.96 6.55 248.97 6.35 248.97 6.15 248.98 5.95 248.98 5.74 248.99 5.54 248.99 5.34 248.99 5.14 249 4.94 249 4.74 249.01 4.53 249.01 4.33 249.02 4.13 249.02 3.93 249.03 3.73 249.03 3.52 249.03 3.32 249.04 3.12 249.04 2.92 249.05 2.72 249.05 2.52 249.06 2.31 249.06 2.11 249.06 1.91 249.07 1.71 249.07 1.51 249.08 1.31 249.08 1.1 249.09 0.9 249.09 0.7 249.09 0.5 249.1 0.3 249.1"/><polyline class="cls-3" points="506.87 259.88 506.67 259.88 506.46 259.89 506.26 259.89 506.06 259.9 505.86 259.9 505.66 259.9 505.46 259.91 505.25 259.91 505.05 259.92 504.85 259.92 504.65 259.93 504.45 259.93 504.25 259.94 504.05 259.94 503.84 259.94 503.64 259.95 503.44 259.95 503.24 259.96 503.04 259.96 502.83 259.97 502.63 259.97 502.43 259.98 502.23 259.98 502.03 259.98 501.83 259.99 501.63 259.99 501.42 260 501.22 260 501.02 260.01 500.82 260.01 500.62 260.01 500.42 260.02 500.21 260.02 500.01 260.03 499.81 260.03 499.61 260.04 499.41 260.04 499.21 260.05 499 260.05 498.8 260.06 498.6 260.06 498.4 260.06 498.2 260.07 498 260.07 497.79 260.08 497.59 260.08 497.39 260.09 497.19 260.09 496.99 260.1 496.79 260.1 496.58 260.11 496.38 260.11 496.18 260.12 495.98 260.12 495.78 260.13 495.58 260.13 495.37 260.13 495.17 260.14 494.97 260.14 494.77 260.15 494.57 260.15 494.37 260.16 494.16 260.16 493.96 260.17 493.76 260.17 493.56 260.18 493.36 260.18 493.16 260.19 492.95 260.19 492.75 260.2 492.55 260.2 492.35 260.2 492.15 260.21 491.95 260.21 491.74 260.22 491.54 260.23 491.34 260.23 491.14 260.23 490.94 260.24 490.74 260.24 490.53 260.25 490.33 260.25 490.13 260.26 489.93 260.26 489.73 260.27 489.53 260.27 489.32 260.28 489.12 260.28 488.92 260.29 488.72 260.29 488.52 260.3 488.32 260.3 488.11 260.31 487.91 260.31 487.71 260.32 487.51 260.32 487.31 260.33 487.11 260.33 486.9 260.34 486.7 260.34 486.5 260.35 486.3 260.35 486.1 260.36 485.9 260.36 485.69 260.37 485.49 260.37 485.29 260.38 485.09 260.38 484.89 260.39 484.69 260.39 484.48 260.4 484.28 260.4 484.08 260.41 483.88 260.42 483.68 260.42 483.48 260.43 483.27 260.43 483.07 260.44 482.87 260.44 482.67 260.45 482.47 260.45 482.27 260.46 482.06 260.46 481.86 260.47 481.66 260.47 481.46 260.48 481.26 260.48 481.06 260.49 480.85 260.49 480.65 260.5 480.45 260.5 480.25 260.51 480.05 260.51 479.85 260.52 479.64 260.53 479.44 260.53 479.24 260.54 479.04 260.54 478.84 260.55 478.64 260.55 478.44 260.56 478.23 260.56 478.03 260.57 477.83 260.57 477.63 260.58 477.43 260.58 477.23 260.59 477.02 260.6 476.82 260.6 476.62 260.61 476.42 260.61 476.22 260.62 476.01 260.62 475.81 260.63 475.61 260.63 475.41 260.64 475.21 260.65 475.01 260.65 474.81 260.66 474.6 260.66 474.4 260.67 474.2 260.67 474 260.68 473.8 260.69 473.6 260.69 473.39 260.7 473.19 260.7 472.99 260.71 472.79 260.71 472.59 260.72 472.38 260.73 472.18 260.73 471.98 260.74 471.78 260.74 471.58 260.75 471.38 260.75 471.18 260.76 470.97 260.76 470.77 260.77 470.57 260.78 470.37 260.78 470.17 260.79 469.96 260.79 469.76 260.8 469.56 260.81 469.36 260.81 469.16 260.82 468.96 260.82 468.75 260.83 468.55 260.84 468.35 260.84 468.15 260.85 467.95 260.85 467.75 260.86 467.55 260.87 467.34 260.87 467.14 260.88 466.94 260.88 466.74 260.89 466.54 260.9 466.33 260.9 466.13 260.91 465.93 260.91 465.73 260.92 465.53 260.93 465.33 260.93 465.13 260.94 464.92 260.94 464.72 260.95 464.52 260.96 464.32 260.96 464.12 260.97 463.92 260.98 463.71 260.98 463.51 260.99 463.31 260.99 463.11 261 462.91 261.01 462.7 261.01 462.5 261.02 462.3 261.02 462.1 261.03 461.9 261.04 461.7 261.04 461.5 261.05 461.29 261.06 461.09 261.06 460.89 261.07 460.69 261.08 460.49 261.08 460.29 261.09 460.08 261.1 459.88 261.1 459.68 261.11 459.48 261.12 459.28 261.12 459.07 261.13 458.87 261.13 458.67 261.14 458.47 261.15 458.27 261.15 458.07 261.16 457.87 261.17 457.66 261.17 457.46 261.18 457.26 261.19 457.06 261.19 456.86 261.2 456.65 261.21 456.45 261.21 456.25 261.22 456.05 261.23 455.85 261.23 455.65 261.24 455.44 261.25 455.24 261.25 455.04 261.26 454.84 261.27 454.64 261.27 454.44 261.28 454.24 261.29 454.03 261.29 453.83 261.3 453.63 261.31 453.43 261.31 453.23 261.32 453.02 261.33 452.82 261.33 452.62 261.34 452.42 261.35 452.22 261.36 452.02 261.36 451.81 261.37 451.61 261.38 451.41 261.38 451.21 261.39 451.01 261.4 450.81 261.4 450.61 261.41 450.4 261.42 450.2 261.43 450 261.43 449.8 261.44 449.6 261.45 449.39 261.45 449.19 261.46 448.99 261.47 448.79 261.48 448.59 261.48 448.39 261.49 448.19 261.5 447.98 261.5 447.78 261.51 447.58 261.52 447.38 261.53 447.18 261.53 446.98 261.54 446.77 261.55 446.57 261.56 446.37 261.56 446.17 261.57 445.97 261.58 445.77 261.58 445.56 261.59 445.36 261.6 445.16 261.61 444.96 261.62 444.76 261.62 444.56 261.63 444.35 261.64 444.15 261.64 443.95 261.65 443.75 261.66 443.55 261.67 443.35 261.68 443.14 261.68 442.94 261.69 442.74 261.7 442.54 261.71 442.34 261.71 442.14 261.72 441.93 261.73 441.73 261.74 441.53 261.75 441.33 261.75 441.13 261.76 440.93 261.77 440.72 261.78 440.52 261.78 440.32 261.79 440.12 261.8 439.92 261.81 439.72 261.81 439.51 261.82 439.31 261.83 439.11 261.84 438.91 261.85 438.71 261.86 438.51 261.86 438.3 261.87 438.1 261.88 437.9 261.89 437.7 261.89 437.5 261.9 437.3 261.91 437.09 261.92 436.89 261.93 436.69 261.94 436.49 261.94 436.29 261.95 436.09 261.96 435.88 261.97 435.68 261.98 435.48 261.99 435.28 261.99 435.08 262 434.88 262.01 434.67 262.02 434.47 262.03 434.27 262.04 434.07 262.04 433.87 262.05 433.67 262.06 433.46 262.07 433.26 262.08 433.06 262.09 432.86 262.09 432.66 262.1 432.46 262.11 432.25 262.12 432.05 262.13 431.85 262.14 431.65 262.15 431.45 262.15 431.25 262.16 431.04 262.17 430.84 262.18 430.64 262.19 430.44 262.2 430.24 262.21 430.04 262.22 429.83 262.22 429.63 262.23 429.43 262.24 429.23 262.25 429.03 262.26 428.83 262.27 428.62 262.28 428.42 262.29 428.22 262.3 428.02 262.31 427.82 262.31 427.62 262.32 427.42 262.33 427.21 262.34 427.01 262.35 426.81 262.36 426.61 262.37 426.41 262.38 426.2 262.39 426 262.4 425.8 262.4 425.6 262.41 425.4 262.42 425.2 262.43 425 262.44 424.79 262.45 424.59 262.46 424.39 262.47 424.19 262.48 423.99 262.49 423.79 262.5 423.58 262.51 423.38 262.52 423.18 262.53 422.98 262.54 422.78 262.55 422.57 262.56 422.37 262.56 422.17 262.57 421.97 262.58 421.77 262.59 421.57 262.6 421.37 262.61 421.16 262.62 420.96 262.63 420.76 262.64 420.56 262.65 420.36 262.66 420.15 262.67 419.95 262.68 419.75 262.69 419.55 262.7 419.35 262.71 419.15 262.72 418.94 262.73 418.74 262.74 418.54 262.75 418.34 262.76 418.14 262.77 417.94 262.78 417.74 262.79 417.53 262.8 417.33 262.81 417.13 262.82 416.93 262.83 416.73 262.84 416.52 262.85 416.32 262.86 416.12 262.88 415.92 262.88 415.72 262.89 415.52 262.91 415.31 262.92 415.11 262.93 414.91 262.94 414.71 262.95 414.51 262.96 414.31 262.97 414.11 262.98 413.9 262.99 413.7 263 413.5 263.01 413.3 263.02 413.1 263.03 412.89 263.04 412.69 263.06 412.49 263.06 412.29 263.08 412.09 263.09 411.89 263.1 411.69 263.11 411.48 263.12 411.28 263.13 411.08 263.14 410.88 263.15 410.68 263.16 410.48 263.18 410.27 263.19 410.07 263.2 409.87 263.21 409.67 263.22 409.47 263.23 409.26 263.24 409.06 263.25 408.86 263.26 408.66 263.28 408.46 263.29 408.26 263.3 408.06 263.31 407.85 263.32 407.65 263.33 407.45 263.35 407.25 263.36 407.05 263.37 406.85 263.38 406.64 263.39 406.44 263.4 406.24 263.42 406.04 263.43 405.84 263.44 405.63 263.45 405.43 263.46 405.23 263.47 405.03 263.49 404.83 263.5 404.63 263.51 404.43 263.52 404.22 263.53 404.02 263.55 403.82 263.56 403.62 263.57 403.42 263.58 403.21 263.6 403.01 263.61 402.81 263.62 402.61 263.63 402.41 263.64 402.21 263.66 402 263.67 401.8 263.68 401.6 263.69 401.4 263.71 401.2 263.72 401 263.73 400.8 263.74 400.59 263.76 400.39 263.77 400.19 263.78 399.99 263.8 399.79 263.81 399.58 263.82 399.38 263.83 399.18 263.85 398.98 263.86 398.78 263.87 398.58 263.88 398.38 263.9 398.17 263.91 397.97 263.92 397.77 263.94 397.57 263.95 397.37 263.96 397.17 263.98 396.96 263.99 396.76 264 396.56 264.02 396.36 264.03 396.16 264.04 395.96 264.06 395.75 264.07 395.55 264.08 395.35 264.1 395.15 264.11 394.95 264.13 394.75 264.14 394.54 264.15 394.34 264.17 394.14 264.18 393.94 264.19 393.74 264.21 393.54 264.22 393.33 264.24 393.13 264.25 392.93 264.26 392.73 264.28 392.53 264.29 392.33 264.31 392.12 264.32 391.92 264.33 391.72 264.35 391.52 264.36 391.32 264.38 391.12 264.39 390.91 264.41 390.71 264.42 390.51 264.44 390.31 264.45 390.11 264.47 389.91 264.48 389.7 264.5 389.5 264.51 389.3 264.52 389.1 264.54 388.9 264.55 388.7 264.57 388.49 264.58 388.29 264.6 388.09 264.62 387.89 264.63 387.69 264.64 387.49 264.66 387.28 264.68 387.08 264.69 386.88 264.71 386.68 264.72 386.48 264.74 386.28 264.75 386.07 264.77 385.87 264.78 385.67 264.8 385.47 264.81 385.27 264.83 385.07 264.85 384.86 264.86 384.66 264.88 384.46 264.89 384.26 264.91 384.06 264.93 383.86 264.94 383.65 264.96 383.45 264.98 383.25 264.99 383.05 265.01 382.85 265.02 382.65 265.04 382.44 265.06 382.24 265.07 382.04 265.09 381.84 265.11 381.64 265.12 381.44 265.14 381.23 265.16 381.03 265.17 380.83 265.19 380.63 265.21 380.43 265.22 380.23 265.24 380.02 265.26 379.82 265.27 379.62 265.29 379.42 265.31 379.22 265.33 379.02 265.34 378.81 265.36 378.61 265.38 378.41 265.4 378.21 265.41 378.01 265.43 377.81 265.45 377.6 265.47 377.4 265.49 377.2 265.5 377 265.52 376.8 265.54 376.6 265.56 376.39 265.57 376.19 265.59 375.99 265.61 375.79 265.63 375.59 265.65 375.39 265.67 375.19 265.68 374.98 265.7 374.78 265.72 374.58 265.74 374.38 265.76 374.18 265.78 373.98 265.8 373.77 265.81 373.57 265.83 373.37 265.85 373.17 265.87 372.97 265.89 372.76 265.91 372.56 265.93 372.36 265.95 372.16 265.97 371.96 265.99 371.76 266.01 371.56 266.03 371.35 266.05 371.15 266.07 370.95 266.09 370.75 266.11 370.55 266.13 370.35 266.15 370.14 266.17 369.94 266.19 369.74 266.21 369.54 266.23 369.34 266.25 369.13 266.27 368.93 266.29 368.73 266.31 368.53 266.33 368.33 266.35 368.13 266.37 367.93 266.39 367.72 266.41 367.52 266.43 367.32 266.45 367.12 266.48 366.92 266.5 366.71 266.52 366.51 266.54 366.31 266.56 366.11 266.58 365.91 266.61 365.71 266.63 365.5 266.65 365.3 266.67 365.1 266.69 364.9 266.71 364.7 266.74 364.5 266.76 364.3 266.78 364.09 266.8 363.89 266.82 363.69 266.85 363.49 266.87 363.29 266.89 363.08 266.92 362.88 266.94 362.68 266.96 362.48 266.98 362.28 267.01 362.08 267.03 361.88 267.05 361.67 267.08 361.47 267.1 361.27 267.12 361.07 267.15 360.87 267.17 360.67 267.19 360.46 267.22 360.26 267.24 360.06 267.27 359.86 267.29 359.66 267.31 359.45 267.34 359.25 267.36 359.05 267.39 358.85 267.41 358.65 267.44 358.45 267.46 358.25 267.49 358.04 267.51 357.84 267.54 357.64 267.56 357.44 267.59 357.24 267.61 357.04 267.64 356.83 267.67 356.63 267.69 356.43 267.72 356.23 267.74 356.03 267.77 355.82 267.79 355.62 267.82 355.42 267.85 355.22 267.87 355.02 267.9 354.82 267.93 354.62 267.95 354.41 267.98 354.21 268.01 354.01 268.03 353.81 268.06 353.61 268.09 353.4 268.12 353.2 268.14 353 268.17 352.8 268.2 352.6 268.23 352.4 268.25 352.19 268.28 351.99 268.31 351.79 268.34 351.59 268.37 351.39 268.39 351.19 268.42 350.99 268.45 350.78 268.48 350.58 268.51 350.38 268.54 350.18 268.57 349.98 268.6 349.77 268.63 349.57 268.66 349.37 268.69 349.17 268.72 348.97 268.75 348.77 268.78 348.56 268.81 348.36 268.84 348.16 268.87 347.96 268.9 347.76 268.93 347.56 268.96 347.36 268.99 347.15 269.02 346.95 269.05 346.75 269.08 346.55 269.12 346.35 269.15 346.14 269.18 345.94 269.21 345.74 269.24 345.54 269.27 345.34 269.31 345.14 269.34 344.94 269.37 344.73 269.4 344.53 269.44 344.33 269.47 344.13 269.5 343.93 269.54 343.73 269.57 343.52 269.6 343.32 269.64 343.12 269.67 342.92 269.71 342.72 269.74 342.52 269.77 342.31 269.81 342.11 269.84 341.91 269.88 341.71 269.91 341.51 269.95 341.31 269.98 341.1 270.02 340.9 270.06 340.7 270.09 340.5 270.13 340.3 270.16 340.1 270.2 339.89 270.24 339.69 270.27 339.49 270.31 339.29 270.35 339.09 270.38 338.89 270.42 338.68 270.46 338.48 270.5 338.28 270.54 338.08 270.57 337.88 270.61 337.68 270.65 337.47 270.69 337.27 270.73 337.07 270.77 336.87 270.81 336.67 270.84 336.47 270.88 336.26 270.92 336.06 270.96 335.86 271 335.66 271.04 335.46 271.08 335.26 271.13 335.05 271.17 334.85 271.21 334.65 271.25 334.45 271.29 334.25 271.33 334.05 271.37 333.84 271.42 333.64 271.46 333.44 271.5 333.24 271.54 333.04 271.59 332.84 271.63 332.63 271.67 332.43 271.72 332.23 271.76 332.03 271.81 331.83 271.85 331.63 271.89 331.42 271.94 331.22 271.99 331.02 272.03 330.82 272.08 330.62 272.12 330.42 272.17 330.21 272.21 330.01 272.26 329.81 272.31 329.61 272.35 329.41 272.4 329.21 272.45 329 272.5 328.8 272.54 328.6 272.59 328.4 272.64 328.2 272.69 328 272.74 327.79 272.79 327.59 272.84 327.39 272.89 327.19 272.94 326.99 272.99 326.79 273.04 326.58 273.09 326.38 273.14 326.18 273.19 325.98 273.24 325.78 273.3 325.58 273.35 325.37 273.4 325.17 273.45 324.97 273.51 324.77 273.56 324.57 273.62 324.37 273.67 324.17 273.72 323.96 273.78 323.76 273.83 323.56 273.89 323.36 273.94 323.16 274 322.95 274.06 322.75 274.11 322.55 274.17 322.35 274.23 322.15 274.29 321.95 274.34 321.75 274.4 321.54 274.46 321.34 274.52 321.14 274.58 320.94 274.64 320.74 274.7 320.54 274.76 320.33 274.82 320.13 274.88 319.93 274.94 319.73 275 319.53 275.07 319.32 275.13 319.12 275.19 318.92 275.26 318.72 275.32 318.52 275.38 318.32 275.45 318.12 275.51 317.91 275.58 317.71 275.65 317.51 275.71 317.31 275.78 317.11 275.85 316.9 275.91 316.7 275.98 316.5 276.05 316.3 276.12 316.1 276.19 315.9 276.26 315.69 276.33 315.49 276.4 315.29 276.47 315.09 276.54 314.89 276.61 314.69 276.69 314.49 276.76 314.28 276.83 314.08 276.91 313.88 276.98 313.68 277.06 313.48 277.13 313.27 277.21 313.07 277.28 312.87 277.36 312.67 277.44 312.47 277.52 312.27 277.59 312.06 277.67 311.86 277.75 311.66 277.83 311.46 277.91 311.26 278 311.06 278.08 310.86 278.16 310.65 278.24 310.45 278.33 310.25 278.41 310.05 278.5 309.85 278.58 309.64 278.67 309.44 278.75 309.24 278.84 309.04 278.93 308.84 279.02 308.64 279.11 308.44 279.2 308.23 279.29 308.03 279.38 307.83 279.47 307.63 279.56 307.43 279.65 307.23 279.75 307.02 279.84 306.82 279.94 306.62 280.03 306.42 280.13 306.22 280.23 306.01 280.33 305.81 280.43 305.61 280.52 305.41 280.63 305.21 280.73 305.01 280.83 304.81 280.93 304.6 281.04 304.4 281.14 304.2 281.25 304 281.35 303.8 281.46 303.6 281.57 303.39 281.68 303.19 281.79 302.99 281.89 302.79 282.01 302.59 282.12 302.38 282.23 302.18 282.35 301.98 282.46 301.78 282.58 301.58 282.69 301.38 282.81 301.18 282.93 300.97 283.05 300.77 283.17 300.57 283.29 300.37 283.42 300.17 283.54 299.96 283.67 299.76 283.79 299.56 283.92 299.36 284.05 299.16 284.18 298.96 284.31 298.75 284.44 298.55 284.57 298.35 284.71 298.15 284.84 297.95 284.98 297.75 285.12 297.55 285.26 297.34 285.4 297.14 285.54 296.94 285.68 296.74 285.83 296.54 285.97 296.33 286.12 296.13 286.27 295.93 286.42 295.73 286.57 295.53 286.72 295.33 286.88 295.13 287.03 294.92 287.19 294.72 287.35 294.52 287.51 294.32 287.67 294.12 287.83 293.92 288 293.71 288.17 293.51 288.33 293.31 288.5 293.11 288.68 292.91 288.85 292.71 289.02 292.5 289.2 292.3 289.38 292.1 289.56 291.9 289.74 291.7 289.93 291.5 290.11 291.29 290.3 291.09 290.49 290.89 290.69 290.69 290.88 290.49 291.08 290.29 291.27 290.08 291.48 289.88 291.68 289.68 291.88 289.48 292.09 289.28 292.3 289.08 292.51 288.87 292.73 288.67 292.95 288.47 293.17 288.27 293.39 288.07 293.61 287.87 293.84 287.66 294.07 287.46 294.3 287.26 294.54 287.06 294.78 286.86 295.02 286.66 295.26 286.45 295.51 286.25 295.76 286.05 296.01 285.85 296.27 285.65 296.53 285.45 296.79 285.24 297.06 285.04 297.33 284.84 297.6 284.64 297.88 284.44 298.15 284.24 298.44 284.03 298.73 283.83 299.02 283.63 299.31 283.43 299.61 283.23 299.91 283.03 300.22 282.82 300.53 282.62 300.85 282.42 301.17 282.22 301.49 282.02 301.82 281.82 302.15 281.61 302.49 281.41 302.83 281.21 303.18 281.01 303.53 280.81 303.89 280.61 304.25 280.4 304.62 280.2 305 280 305.38 279.8 305.76 279.6 306.15 279.4 306.55 279.19 306.95 278.99 307.36 278.79 307.78 278.59 308.2 278.39 308.63 278.19 309.07 277.98 309.51 277.78 309.96 277.58 310.42 277.38 310.89 277.18 311.36 276.98 311.84 276.77 312.33 276.57 312.83 276.37 313.34 276.17 313.86 275.97 314.38 275.77 314.92 275.56 315.46 275.36 316.01 275.16 316.58 274.96 317.15 274.76 317.74 274.56 318.34 274.35 318.94 274.15 319.56 273.95 320.19 273.75 320.84 273.55 321.5 273.35 322.17 273.14 322.85 272.94 323.55 272.74 324.26 272.54 324.99 272.34 325.73 272.14 326.49 272.04 326.87 271.94 327.26 271.83 327.65 271.73 328.05 271.63 328.45 271.53 328.86 271.43 329.27 271.33 329.68 271.23 330.1 271.13 330.53 271.03 330.96 270.93 331.39 270.82 331.83 270.73 332.28 270.62 332.73 270.52 333.18 270.42 333.64 270.32 334.11 270.22 334.58 270.12 335.06 270.02 335.54 269.92 336.02 269.82 336.52 269.72 337.02 269.62 337.53 269.51 338.04 269.41 338.56 269.31 339.08 269.21 339.61 269.11 340.15 269.01 340.7 268.91 341.25 268.81 341.81 268.71 342.38 268.61 342.95 268.51 343.53 268.4 344.12 268.31 344.72 268.2 345.33 268.1 345.94 268 346.56 267.9 347.19 267.8 347.83 267.7 348.48 267.6 349.14 267.5 349.8 267.4 350.48 267.3 351.17 267.2 351.86 267.1 352.57 266.99 353.28 266.89 354.01 266.79 354.75 266.69 355.49 266.59 356.25 266.49 357.02 266.39 357.81 266.29 358.6 266.19 359.41 266.09 360.23 265.99 361.06 265.88 361.91 265.78 362.77 265.68 363.64 265.58 364.53 265.48 365.43 265.38 366.35 265.28 367.28 265.18 368.22 265.08 369.19 264.98 370.17 264.88 371.17 264.78 372.18 264.68 373.21 264.57 374.26 264.47 375.33 264.37 376.42 264.27 377.53 264.17 378.66 264.07 379.81 263.97 380.98 263.87 382.17 263.77 383.39 263.67 384.63 263.57 385.89 263.46 387.18 263.36 388.49 263.26 389.83 263.16 391.2 263.06 392.59 262.96 394.02 262.86 395.47 262.76 396.95 262.66 398.47 262.56 400.02 262.46 401.6 262.36 403.22 262.25 404.87 262.15 406.56 262.05 408.29 261.95 410.05 261.85 411.86 261.75 413.71 261.65 415.61 261.55 417.55 261.45 419.54 261.35 421.58 261.25 423.67 261.15 425.81 261.05 428 260.94 430.26 260.84 432.57 260.74 434.94 260.64 437.38 260.54 439.89 260.44 442.46 260.34 445.11 260.24 447.83 260.14 450.63 260.04 453.52 259.94 456.49 259.83 459.55 259.73 462.7 259.63 465.96 259.53 469.31 259.43 472.78 259.33 476.36 259.23 480.05 259.13 483.88 259.03 487.83 258.93 491.92 258.83 496.16 258.73 500.56 258.63 505.12"/><text class="cls-2" transform="translate(276.34 358.95)">B</text></svg>