<svg xmlns="http://www.w3.org/2000/svg" viewBox="0 0 562.87 521.7"><defs><style>.cls-1,.cls-2,.cls-4,.cls-7{fill:none;stroke-miterlimit:10;}.cls-1{stroke:#000002;}.cls-2{stroke:#000;}.cls-3{isolation:isolate;font-size:40.5px;font-family:ArialMT, Arial;}.cls-4{stroke:#2e3192;}.cls-5{font-size:12px;font-family:MyriadPro-Regular, Myriad Pro;}.cls-6{font-family:AdobeSongStd-Light-GBpc-EUC-H, Adobe Song Std;}.cls-7{stroke:#00aeef;stroke-width:3px;}</style></defs><title>7.1.1</title><g id="Layer_1" data-name="Layer 1"><polygon class="cls-1" points="35.1 24.12 35.1 464.51 471.45 464.51 545.57 464.51 545.57 24.12 35.1 24.12"/><line class="cls-2" x1="108.49" y1="464.51" x2="108.57" y2="24.12"/><path class="cls-2" d="M111.68,199.4" transform="translate(-4.4 -101.25)"/><path class="cls-2" d="M111.68,564.88" transform="translate(-4.4 -101.25)"/><path class="cls-2" d="M112.89,125.37" transform="translate(-4.4 -101.25)"/><path class="cls-2" d="M112.89,565.77" transform="translate(-4.4 -101.25)"/><line class="cls-2" x1="181.63" y1="464.51" x2="181.63" y2="22.74"/><path class="cls-2" d="M39.51,198.1c167.67,1.54,342.79,1.8,510.46.66" transform="translate(-4.4 -101.25)"/><path class="cls-2" d="M550,272.39c-167.67.4-342.79.32-510.46-.25" transform="translate(-4.4 -101.25)"/><path class="cls-2" d="M39.51,345.53c167.67.16,342.79.16,510.46.08" transform="translate(-4.4 -101.25)"/><path class="cls-2" d="M550,418.83c-167.67-.24-342.79-.16-510.46.16" transform="translate(-4.4 -101.25)"/><line class="cls-2" x1="254.69" y1="464.6" x2="254.69" y2="24.2"/><line class="cls-2" x1="326.06" y1="464.6" x2="326.06" y2="24.2"/><line class="cls-2" x1="400.09" y1="464.6" x2="400.09" y2="24.2"/><line class="cls-2" x1="471.45" y1="464.51" x2="471.45" y2="24.16"/><text class="cls-3" transform="translate(0 502.09)">0</text><text class="cls-3" transform="translate(96.97 502.09)">1</text><text class="cls-3" transform="translate(173.74 502.09)">2</text><text class="cls-3" transform="translate(247.81 502.09)">3</text><text class="cls-3" transform="translate(317.84 502.09)">4</text><text class="cls-3" transform="translate(391.91 502.09)">5</text><text class="cls-3" transform="translate(464.64 502.09)">6</text><text class="cls-3" transform="translate(540.35 502.09)">7</text><text class="cls-3" transform="translate(0 34.76)">6</text><text class="cls-3" transform="translate(0 108.83)">5</text><text class="cls-3" transform="translate(0 180.21)">4</text><text class="cls-3" transform="translate(0 254.28)">3</text><text class="cls-3" transform="translate(0 324.32)">2</text><text class="cls-3" transform="translate(0 402.43)">1</text><path class="cls-4" d="M475.85,491.25" transform="translate(-4.4 -101.25)"/><path class="cls-4" d="M475.85,565.77" transform="translate(-4.4 -101.25)"/><path class="cls-4" d="M186,418.67" transform="translate(-4.4 -101.25)"/><path class="cls-2" d="M550,490.37H39.51" transform="translate(-4.4 -101.25)"/><text class="cls-5" transform="translate(358.92 518.65)">8x7=56(<tspan class="cls-6" x="40.74" y="0">像素</tspan><tspan x="64.74" y="0">)</tspan></text></g><g id="Layer_2" data-name="Layer 2"><polyline class="cls-7" points="35.1 464.56 35.1 389.15 108.57 389.15 108.49 317.46 181.63 317.46 181.63 244.45 254.69 243.67 254.69 170.93 326.06 171.43 326.06 243.67 326.06 389.15 471.45 390.04 471.45 464.56"/></g></svg>