<svg id="Layer_1" data-name="Layer 1" xmlns="http://www.w3.org/2000/svg" viewBox="0 0 270.47 165"><defs><style>.cls-1,.cls-2,.cls-3,.cls-4,.cls-7,.cls-8,.cls-9{fill:none;stroke:#231f20;stroke-miterlimit:10;}.cls-2,.cls-3,.cls-7,.cls-8,.cls-9{stroke-width:0.5px;}.cls-3{stroke-dasharray:8.64 8.64;}.cls-4{stroke-width:0.75px;}.cls-5{isolation:isolate;font-size:9px;fill:#231f20;font-family:ArialMT, Arial;}.cls-6{font-size:12px;font-family:MyriadPro-Regular, Myriad Pro;}.cls-7{stroke-dasharray:8 8;}.cls-8{stroke-dasharray:7.98 7.98;}.cls-9{stroke-dasharray:8 8;}</style></defs><title>7.1.3</title><line class="cls-1" x1="270" y1="84" y2="84"/><line class="cls-1" x1="135" y1="3" x2="135" y2="165"/><line class="cls-2" x1="8.96" y1="82.03" x2="8.96" y2="85.97"/><line class="cls-2" x1="80.94" y1="82.03" x2="80.94" y2="85.97"/><line class="cls-2" x1="27.01" y1="82.03" x2="27.01" y2="85.97"/><line class="cls-2" x1="117.03" y1="82.03" x2="117.03" y2="85.97"/><line class="cls-2" x1="45.03" y1="82.03" x2="45.03" y2="85.97"/><line class="cls-2" x1="99.06" y1="82.03" x2="99.06" y2="85.97"/><line class="cls-2" x1="63.04" y1="82.03" x2="63.04" y2="85.97"/><line class="cls-2" x1="152.99" y1="82.03" x2="152.99" y2="85.97"/><line class="cls-2" x1="188.96" y1="82.03" x2="188.96" y2="85.97"/><line class="cls-2" x1="207.03" y1="81.96" x2="207.03" y2="85.9"/><line class="cls-2" x1="224.99" y1="81.96" x2="224.99" y2="85.9"/><line class="cls-2" x1="243" y1="81.96" x2="243" y2="85.9"/><line class="cls-2" x1="261.01" y1="81.96" x2="261.01" y2="85.9"/><polyline class="cls-2" points="133.03 66 136.97 66 139.03 66"/><line class="cls-3" x1="147.67" y1="66" x2="160.63" y2="66"/><polyline class="cls-2" points="164.95 66 170.95 66 170.95 72"/><polyline class="cls-2" points="170.95 79.97 170.95 82.03 170.95 85.97"/><line class="cls-2" x1="133.03" y1="48" x2="136.97" y2="48"/><line class="cls-2" x1="133.03" y1="30" x2="136.97" y2="30"/><line class="cls-2" x1="133.03" y1="12" x2="136.97" y2="12"/><line class="cls-2" x1="133.03" y1="102" x2="136.97" y2="102"/><line class="cls-2" x1="133.03" y1="120" x2="136.97" y2="120"/><line class="cls-2" x1="133.03" y1="138" x2="136.97" y2="138"/><line class="cls-2" x1="133.03" y1="156" x2="136.97" y2="156"/><line class="cls-4" x1="270" y1="84" x2="266.59" y2="82.03"/><line class="cls-4" x1="270" y1="84" x2="266.59" y2="85.97"/><line class="cls-1" x1="135" y1="3" x2="133.03" y2="6.41"/><line class="cls-1" x1="135" y1="3" x2="136.97" y2="6.41"/><text class="cls-5" transform="translate(139.52 7.72)">y</text><text class="cls-5" transform="translate(265.97 91.52)">x</text><text class="cls-5" transform="translate(127.83 92.11)">0</text><text class="cls-5" transform="translate(150.44 92.11)">1</text><text class="cls-5" transform="translate(168.84 92.11)">2</text><text class="cls-5" transform="translate(186.91 92.11)">3</text><text class="cls-5" transform="translate(204.42 92.11)">4</text><text class="cls-5" transform="translate(223.6 92.11)">5</text><text class="cls-5" transform="translate(240.78 92.11)">6</text><text class="cls-5" transform="translate(258.85 92.11)">7</text><text class="cls-5" transform="translate(127.83 66.39)">1</text><text class="cls-5" transform="translate(127.83 48)">2</text><text class="cls-5" transform="translate(127.83 30)">3</text><text class="cls-5" transform="translate(127.83 12)">4</text><text class="cls-5" transform="translate(124.73 105.3)">-1</text><text class="cls-5" transform="translate(124.73 122.26)">-2</text><text class="cls-5" transform="translate(124.73 138)">-3</text><text class="cls-5" transform="translate(124.73 156)">-4</text><text class="cls-5" transform="translate(112.64 92.11)">-1</text><text class="cls-5" transform="translate(95.02 92.11)">-2</text><text class="cls-5" transform="translate(77.95 91.52)">-3</text><text class="cls-5" transform="translate(59.05 92.11)">-4</text><text class="cls-5" transform="translate(41.26 91.52)">-5</text><text class="cls-5" transform="translate(22.86 92.11)">-6</text><text class="cls-5" transform="translate(5.12 92.11)">-7</text><text class="cls-6" transform="translate(188.96 48)">1</text><text class="cls-6" transform="translate(80.94 48)">2</text><text class="cls-6" transform="translate(80.94 120)">3</text><text class="cls-6" transform="translate(188.96 120)">4</text><line class="cls-2" x1="135" y1="48" x2="129" y2="48"/><polyline class="cls-2" points="123.03 48 117.03 48 117.03 54"/><line class="cls-7" x1="117.03" y1="62" x2="117.03" y2="74"/><line class="cls-2" x1="117.03" y1="78" x2="117.03" y2="84"/><line class="cls-2" x1="99.06" y1="84" x2="99.06" y2="90"/><polyline class="cls-2" points="99.06 96 99.06 102 105.06 102"/><line class="cls-8" x1="113.04" y1="102" x2="125.01" y2="102"/><line class="cls-2" x1="129" y1="102" x2="135" y2="102"/><line class="cls-2" x1="135" y1="120" x2="141" y2="120"/><polyline class="cls-2" points="146.99 120 152.99 120 152.99 114"/><line class="cls-9" x1="152.99" y1="106" x2="152.99" y2="94"/><line class="cls-2" x1="152.99" y1="90" x2="152.99" y2="84"/><text class="cls-6" transform="translate(174.56 67.44)">A(+,+)</text><text class="cls-6" transform="translate(89.76 47.82)">B(-,+)</text><text class="cls-6" transform="translate(93.75 113.83)">C(-,-)</text><text class="cls-6" transform="translate(154.27 130.45)">D(+,-)</text></svg>