<svg id="Layer_1" data-name="Layer 1" xmlns="http://www.w3.org/2000/svg" viewBox="0 0 270.47 165"><defs><style>.cls-1,.cls-2,.cls-3,.cls-5,.cls-6,.cls-7{fill:none;}.cls-1,.cls-2,.cls-3{stroke:#231f20;}.cls-1,.cls-2,.cls-3,.cls-5,.cls-6,.cls-7,.cls-8{stroke-miterlimit:10;}.cls-2,.cls-5,.cls-6,.cls-7,.cls-8{stroke-width:0.5px;}.cls-3{stroke-width:0.75px;}.cls-4{isolation:isolate;font-size:9px;fill:#231f20;font-family:ArialMT, Arial;}.cls-5,.cls-6,.cls-7,.cls-8{stroke:#000;}.cls-6{stroke-dasharray:7.98 7.98;}.cls-7{stroke-dasharray:10.67 10.67;}.cls-8{stroke-dasharray:12;}.cls-11,.cls-9{font-size:6px;font-family:MyriadPro-Regular, Myriad Pro;}.cls-9{letter-spacing:0.01em;}.cls-10{letter-spacing:-0.09em;}</style></defs><title>7.1.7</title><line class="cls-1" x1="270" y1="84" y2="84"/><line class="cls-1" x1="135" y1="3" x2="135" y2="165"/><line class="cls-2" x1="8.96" y1="82.03" x2="8.96" y2="85.97"/><line class="cls-2" x1="80.94" y1="82.03" x2="80.94" y2="85.97"/><line class="cls-2" x1="27.01" y1="82.03" x2="27.01" y2="85.97"/><line class="cls-2" x1="117.03" y1="82.03" x2="117.03" y2="85.97"/><line class="cls-2" x1="45.03" y1="82.03" x2="45.03" y2="85.97"/><line class="cls-2" x1="99.06" y1="82.03" x2="99.06" y2="85.97"/><line class="cls-2" x1="63.04" y1="82.03" x2="63.04" y2="85.97"/><line class="cls-2" x1="152.99" y1="82.03" x2="152.99" y2="85.97"/><line class="cls-2" x1="170.95" y1="82.03" x2="170.95" y2="85.97"/><line class="cls-2" x1="188.96" y1="82.03" x2="188.96" y2="85.97"/><line class="cls-2" x1="207.03" y1="81.96" x2="207.03" y2="85.9"/><line class="cls-2" x1="224.99" y1="81.96" x2="224.99" y2="85.9"/><line class="cls-2" x1="243" y1="81.96" x2="243" y2="85.9"/><line class="cls-2" x1="261.01" y1="81.96" x2="261.01" y2="85.9"/><line class="cls-2" x1="133.03" y1="66" x2="136.97" y2="66"/><line class="cls-2" x1="133.03" y1="48" x2="136.97" y2="48"/><line class="cls-2" x1="133.03" y1="30" x2="136.97" y2="30"/><line class="cls-2" x1="133.03" y1="12" x2="136.97" y2="12"/><line class="cls-2" x1="133.03" y1="102" x2="136.97" y2="102"/><line class="cls-2" x1="133.03" y1="120" x2="136.97" y2="120"/><line class="cls-2" x1="133.03" y1="138" x2="136.97" y2="138"/><line class="cls-2" x1="133.03" y1="156" x2="136.97" y2="156"/><line class="cls-3" x1="270" y1="84" x2="266.59" y2="82.03"/><line class="cls-3" x1="270" y1="84" x2="266.59" y2="85.97"/><line class="cls-1" x1="135" y1="3" x2="133.03" y2="6.41"/><line class="cls-1" x1="135" y1="3" x2="136.97" y2="6.41"/><text class="cls-4" transform="translate(139.52 7.72)">y</text><text class="cls-4" transform="translate(265.97 91.52)">x</text><text class="cls-4" transform="translate(127.83 92.11)">0</text><text class="cls-4" transform="translate(150.44 92.11)">1</text><text class="cls-4" transform="translate(168.84 92.11)">2</text><text class="cls-4" transform="translate(186.91 92.11)">3</text><text class="cls-4" transform="translate(204.42 92.11)">4</text><text class="cls-4" transform="translate(223.6 92.11)">5</text><text class="cls-4" transform="translate(240.78 92.11)">6</text><text class="cls-4" transform="translate(258.85 92.11)">7</text><text class="cls-4" transform="translate(127.83 66.39)">1</text><text class="cls-4" transform="translate(127.83 48)">2</text><text class="cls-4" transform="translate(127.83 30)">3</text><text class="cls-4" transform="translate(127.83 12)">4</text><text class="cls-4" transform="translate(124.73 105.3)">-1</text><text class="cls-4" transform="translate(124.73 122.26)">-2</text><text class="cls-4" transform="translate(124.73 138)">-3</text><text class="cls-4" transform="translate(124.73 156)">-4</text><text class="cls-4" transform="translate(112.64 92.11)">-1</text><text class="cls-4" transform="translate(95.02 92.11)">-2</text><text class="cls-4" transform="translate(77.95 91.52)">-3</text><text class="cls-4" transform="translate(59.05 92.11)">-4</text><text class="cls-4" transform="translate(41.26 91.52)">-5</text><text class="cls-4" transform="translate(22.86 92.11)">-6</text><text class="cls-4" transform="translate(5.12 92.11)">-7</text><line class="cls-5" x1="135.01" y1="30" x2="141.01" y2="30"/><line class="cls-6" x1="148.99" y1="30" x2="160.96" y2="30"/><polyline class="cls-5" points="164.95 30 170.95 30 170.95 36"/><line class="cls-7" x1="170.95" y1="46.67" x2="170.95" y2="126.67"/><polyline class="cls-5" points="170.95 132 170.95 138 164.95 138"/><line class="cls-6" x1="156.97" y1="138" x2="145" y2="138"/><line class="cls-5" x1="141.01" y1="138" x2="135.01" y2="138"/><ellipse class="cls-8" cx="170.95" cy="138" rx="0.67" ry="0.76"/><ellipse class="cls-8" cx="170.95" cy="30" rx="0.67" ry="0.76"/><text class="cls-9" transform="translate(172.34 140.1)">B<tspan class="cls-10" x="3.3" y="0">’</tspan></text><text class="cls-11" transform="translate(171.62 27.87)">B</text></svg>