<?xml version="1.0" encoding="utf-8"?>
<!-- Generator: Adobe Illustrator 23.0.1, SVG Export Plug-In . SVG Version: 6.00 Build 0)  -->
<svg version="1.1" id="Layer_1" xmlns="http://www.w3.org/2000/svg" xmlns:xlink="http://www.w3.org/1999/xlink" x="0px" y="0px"
	 viewBox="0 0 270.5 165" style="enable-background:new 0 0 270.5 165;" xml:space="preserve">
<style type="text/css">
	.st0{fill:none;stroke:#231F20;stroke-miterlimit:10;}
	.st1{fill:none;stroke:#231F20;stroke-width:0.5;stroke-miterlimit:10;}
	.st2{fill:none;stroke:#231F20;stroke-width:0.75;stroke-miterlimit:10;}
	.st3{fill:#231F20;}
	.st4{font-family:'ArialMT';}
	.st5{font-size:9px;}
	.st6{fill:none;stroke:#000000;stroke-width:0.5;stroke-miterlimit:10;}
	.st7{fill:none;stroke:#000000;stroke-width:0.5;stroke-miterlimit:10;stroke-dasharray:11.13,11.13;}
	.st8{fill:none;stroke:#000000;stroke-width:0.5;stroke-miterlimit:10;stroke-dasharray:11.14,11.14;}
	.st9{stroke:#000000;stroke-width:0.5;stroke-miterlimit:10;}
	.st10{font-family:'MyriadPro-Regular';}
	.st11{font-size:6px;}
</style>
<title>7.1.5</title>
<line class="st0" x1="270" y1="84" x2="0" y2="84"/>
<line class="st0" x1="135" y1="3" x2="135" y2="165"/>
<line class="st1" x1="9" y1="82" x2="9" y2="86"/>
<line class="st1" x1="80.9" y1="82" x2="80.9" y2="86"/>
<line class="st1" x1="27" y1="82" x2="27" y2="86"/>
<line class="st1" x1="117" y1="82" x2="117" y2="86"/>
<line class="st1" x1="45" y1="82" x2="45" y2="86"/>
<line class="st1" x1="99.1" y1="82" x2="99.1" y2="86"/>
<line class="st1" x1="63" y1="82" x2="63" y2="86"/>
<line class="st1" x1="153" y1="82" x2="153" y2="86"/>
<line class="st1" x1="170.9" y1="82" x2="170.9" y2="86"/>
<line class="st1" x1="189" y1="82" x2="189" y2="86"/>
<line class="st1" x1="207" y1="82" x2="207" y2="85.9"/>
<line class="st1" x1="225" y1="82" x2="225" y2="85.9"/>
<line class="st1" x1="243" y1="82" x2="243" y2="85.9"/>
<line class="st1" x1="261" y1="82" x2="261" y2="85.9"/>
<line class="st1" x1="133" y1="66" x2="137" y2="66"/>
<line class="st1" x1="133" y1="48" x2="137" y2="48"/>
<line class="st1" x1="133" y1="30" x2="137" y2="30"/>
<line class="st1" x1="133" y1="12" x2="137" y2="12"/>
<line class="st1" x1="133" y1="102" x2="137" y2="102"/>
<line class="st1" x1="133" y1="120" x2="137" y2="120"/>
<line class="st1" x1="133" y1="138" x2="137" y2="138"/>
<line class="st1" x1="133" y1="156" x2="137" y2="156"/>
<line class="st2" x1="270" y1="84" x2="266.6" y2="82"/>
<line class="st2" x1="270" y1="84" x2="266.6" y2="86"/>
<line class="st0" x1="135" y1="3" x2="133" y2="6.4"/>
<line class="st0" x1="135" y1="3" x2="137" y2="6.4"/>
<text transform="matrix(1 0 0 1 139.52 7.72)" class="st3 st4 st5">y</text>
<text transform="matrix(1 0 0 1 265.97 91.52)" class="st3 st4 st5">x</text>
<text transform="matrix(1 0 0 1 127.83 92.11)" class="st3 st4 st5">0</text>
<text transform="matrix(1 0 0 1 150.44 92.11)" class="st3 st4 st5">1</text>
<text transform="matrix(1 0 0 1 168.84 92.11)" class="st3 st4 st5">2</text>
<text transform="matrix(1 0 0 1 186.91 92.11)" class="st3 st4 st5">3</text>
<text transform="matrix(1 0 0 1 204.42 92.11)" class="st3 st4 st5">4</text>
<text transform="matrix(1 0 0 1 223.6 92.11)" class="st3 st4 st5">5</text>
<text transform="matrix(1 0 0 1 240.78 92.11)" class="st3 st4 st5">6</text>
<text transform="matrix(1 0 0 1 258.85 92.11)" class="st3 st4 st5">7</text>
<text transform="matrix(1 0 0 1 127.83 66.39)" class="st3 st4 st5">1</text>
<text transform="matrix(1 0 0 1 127.83 48)" class="st3 st4 st5">2</text>
<text transform="matrix(1 0 0 1 127.83 30)" class="st3 st4 st5">3</text>
<text transform="matrix(1 0 0 1 127.83 12)" class="st3 st4 st5">4</text>
<text transform="matrix(1 0 0 1 124.73 105.3)" class="st3 st4 st5">-1</text>
<text transform="matrix(1 0 0 1 124.73 122.26)" class="st3 st4 st5">-2</text>
<text transform="matrix(1 0 0 1 124.73 138)" class="st3 st4 st5">-3</text>
<text transform="matrix(1 0 0 1 124.73 156)" class="st3 st4 st5">-4</text>
<text transform="matrix(1 0 0 1 112.64 92.11)" class="st3 st4 st5">-1</text>
<text transform="matrix(1 0 0 1 95.02 92.11)" class="st3 st4 st5">-2</text>
<text transform="matrix(1 0 0 1 77.95 91.52)" class="st3 st4 st5">-3</text>
<text transform="matrix(1 0 0 1 59.05 92.11)" class="st3 st4 st5">-4</text>
<text transform="matrix(1 0 0 1 41.26 91.52)" class="st3 st4 st5">-5</text>
<text transform="matrix(1 0 0 1 22.86 92.11)" class="st3 st4 st5">-6</text>
<text transform="matrix(1 0 0 1 5.12 92.11)" class="st3 st4 st5">-7</text>
<line class="st6" x1="135.1" y1="48" x2="141.1" y2="48"/>
<line class="st7" x1="152.2" y1="48" x2="213.4" y2="48"/>
<line class="st6" x1="219" y1="48" x2="225" y2="48"/>
<line class="st6" x1="135" y1="138" x2="141" y2="138"/>
<line class="st8" x1="152.1" y1="138" x2="213.4" y2="138"/>
<line class="st6" x1="219" y1="138" x2="225" y2="138"/>
<line class="st6" x1="225" y1="26.5" x2="225" y2="154.7"/>
<line class="st6" x1="189" y1="26.5" x2="189" y2="154.7"/>
<circle class="st9" cx="225.1" cy="48" r="0.9"/>
<circle class="st9" cx="189" cy="48" r="0.9"/>
<circle class="st9" cx="189" cy="138" r="0.9"/>
<circle class="st9" cx="225" cy="138" r="0.9"/>
<text transform="matrix(1 0 0 1 189.89 54.4422)" class="st10 st11">P</text>
<text transform="matrix(1 0 0 1 191.0176 142.8978)" class="st10 st11">Q</text>
<text transform="matrix(1 0 0 1 226.01 54.4422)" class="st10 st11">M</text>
<text transform="matrix(1 0 0 1 226.7111 143.5625)" class="st10 st11">N</text>
</svg>
