<svg id="Layer_1" data-name="Layer 1" xmlns="http://www.w3.org/2000/svg" viewBox="0 0 270.19 164.81"><defs><style>.cls-1,.cls-2,.cls-3{fill:#fff;stroke:#231f20;stroke-miterlimit:10;}.cls-2{stroke-width:0.5px;}.cls-3{stroke-width:0.75px;}.cls-4{font-size:9px;fill:#231f20;font-family:MyriadPro-Regular, Myriad Pro;}</style></defs><title>coord</title><line class="cls-1" x1="270" y1="83.81" y2="83.81"/><line class="cls-1" x1="135" y1="2.81" x2="135" y2="164.81"/><line class="cls-2" x1="8.96" y1="81.84" x2="8.96" y2="85.78"/><line class="cls-2" x1="80.94" y1="81.84" x2="80.94" y2="85.78"/><line class="cls-2" x1="27.01" y1="81.84" x2="27.01" y2="85.78"/><line class="cls-2" x1="117.03" y1="81.84" x2="117.03" y2="85.78"/><line class="cls-2" x1="45.03" y1="81.84" x2="45.03" y2="85.78"/><line class="cls-2" x1="99.06" y1="81.84" x2="99.06" y2="85.78"/><line class="cls-2" x1="63.04" y1="81.84" x2="63.04" y2="85.78"/><line class="cls-2" x1="152.99" y1="81.84" x2="152.99" y2="85.78"/><line class="cls-2" x1="170.95" y1="81.84" x2="170.95" y2="85.78"/><line class="cls-2" x1="188.96" y1="81.84" x2="188.96" y2="85.78"/><line class="cls-2" x1="207.03" y1="81.77" x2="207.03" y2="85.71"/><line class="cls-2" x1="224.99" y1="81.77" x2="224.99" y2="85.71"/><line class="cls-2" x1="243" y1="81.77" x2="243" y2="85.71"/><line class="cls-2" x1="261.01" y1="81.77" x2="261.01" y2="85.71"/><line class="cls-2" x1="133.03" y1="65.81" x2="136.97" y2="65.81"/><line class="cls-2" x1="133.03" y1="47.81" x2="136.97" y2="47.81"/><line class="cls-2" x1="133.03" y1="29.81" x2="136.97" y2="29.81"/><line class="cls-2" x1="133.03" y1="11.81" x2="136.97" y2="11.81"/><line class="cls-2" x1="133.03" y1="101.81" x2="136.97" y2="101.81"/><line class="cls-2" x1="133.03" y1="119.81" x2="136.97" y2="119.81"/><line class="cls-2" x1="133.03" y1="137.81" x2="136.97" y2="137.81"/><line class="cls-2" x1="133.03" y1="155.81" x2="136.97" y2="155.81"/><line class="cls-3" x1="270" y1="83.81" x2="266.59" y2="81.84"/><line class="cls-3" x1="270" y1="83.81" x2="266.59" y2="85.78"/><line class="cls-1" x1="135" y1="2.81" x2="133.03" y2="6.22"/><line class="cls-1" x1="135" y1="2.81" x2="136.97" y2="6.22"/><text class="cls-4" transform="translate(139.52 7.53)">y</text><text class="cls-4" transform="translate(265.97 91.33)">x</text><text class="cls-4" transform="translate(127.83 91.92)">0</text><text class="cls-4" transform="translate(150.44 91.92)">1</text><text class="cls-4" transform="translate(168.84 91.92)">2</text><text class="cls-4" transform="translate(186.91 91.92)">3</text><text class="cls-4" transform="translate(204.42 91.92)">4</text><text class="cls-4" transform="translate(223.6 91.92)">5</text><text class="cls-4" transform="translate(240.78 91.92)">6</text><text class="cls-4" transform="translate(258.85 91.92)">7</text><text class="cls-4" transform="translate(127.83 66.2)">1</text><text class="cls-4" transform="translate(127.83 47.81)">2</text><text class="cls-4" transform="translate(127.83 29.81)">3</text><text class="cls-4" transform="translate(127.83 11.81)">4</text><text class="cls-4" transform="translate(124.73 105.11)">-1</text><text class="cls-4" transform="translate(124.73 122.07)">-2</text><text class="cls-4" transform="translate(124.73 137.81)">-3</text><text class="cls-4" transform="translate(124.73 155.81)">-4</text><text class="cls-4" transform="translate(112.64 91.92)">-1</text><text class="cls-4" transform="translate(95.02 91.92)">-2</text><text class="cls-4" transform="translate(77.95 91.33)">-3</text><text class="cls-4" transform="translate(59.05 91.92)">-4</text><text class="cls-4" transform="translate(41.26 91.33)">-5</text><text class="cls-4" transform="translate(22.86 91.92)">-6</text><text class="cls-4" transform="translate(5.12 91.92)">-7</text></svg>